<svg width="604" height="152" viewBox="0 0 604 152" fill="none" xmlns="http://www.w3.org/2000/svg">
<path d="M244 126V0" stroke="#C2C2C2" stroke-width="0.317125"/>
<path d="M313 126V0" stroke="#C2C2C2" stroke-width="0.317125"/>
<path d="M383 126V0" stroke="#C2C2C2" stroke-width="0.317125"/>
<path d="M452 126V0" stroke="#C2C2C2" stroke-width="0.317125"/>
<path d="M522 126V0" stroke="#C2C2C2" stroke-width="0.317125"/>
<path d="M591 126V0" stroke="#C2C2C2" stroke-width="0.317125"/>
<rect x="0.264098" y="0.264098" width="603.472" height="30.4718" rx="5.01786" stroke="#D18200" stroke-width="0.528196"/>
<path d="M4.76807 61.6794V52.0188H8.26172V51.1106H0.27832V52.0188H3.76465V61.6794H4.76807ZM13.3521 61.6794C15.5859 61.6794 16.9263 60.5808 16.9263 58.7791C16.9263 57.3142 15.9082 56.3254 14.4434 56.1497V56.0984C15.5713 55.8933 16.377 54.8899 16.377 53.718C16.377 52.158 15.1465 51.1106 13.3301 51.1106H9.52881V61.6794H13.3521ZM10.5249 51.9968H13.1177C14.5239 51.9968 15.3662 52.678 15.3662 53.8279C15.3662 55.073 14.4287 55.8054 12.8247 55.8054H10.5249V51.9968ZM10.5249 60.7932V56.6697H13.0811C14.9048 56.6697 15.9009 57.4094 15.9009 58.7278C15.9009 60.0388 14.9414 60.7932 13.2129 60.7932H10.5249ZM28.5425 61.6794V51.1106H27.3853L23.4741 60.3611H23.4302L19.5117 51.1106H18.3618V61.6794H19.2993V53.0076H19.3433L23.0127 61.6282H23.8843L27.561 53.0076H27.605V61.6794H28.5425ZM30.9302 57.512C30.9302 60.0242 31.5967 62.1702 32.959 63.906H33.8013C32.6953 62.5583 31.9189 59.885 31.9189 57.512C31.9189 55.1389 32.6953 52.4583 33.8013 51.1106H32.959C31.5967 52.8464 30.9302 54.9998 30.9302 57.512ZM34.5923 58.8083C34.7021 60.6248 36.2549 61.8479 38.4668 61.8479C40.8032 61.8479 42.2974 60.6321 42.2974 58.7791C42.2974 57.3069 41.4038 56.4939 39.2798 55.9592L38.1372 55.6663C36.5845 55.2708 35.9253 54.7361 35.9253 53.8279C35.9253 52.6633 37.0093 51.8503 38.4741 51.8503C39.9756 51.8503 41.0303 52.6414 41.1255 53.8352H42.1289C42.0703 52.158 40.5615 50.9421 38.5034 50.9421C36.4233 50.9421 34.8853 52.158 34.8853 53.8645C34.8853 55.2561 35.7568 56.0837 37.7124 56.5818L39.0234 56.9187C40.5908 57.3142 41.272 57.9001 41.272 58.8889C41.272 60.0754 40.1367 60.9397 38.5547 60.9397C36.8994 60.9397 35.7056 60.0754 35.5957 58.8083H34.5923ZM45.9595 57.512C45.9595 54.4504 44.9854 52.4583 43.9307 51.1106H43.0884C43.916 52.136 44.9707 54.5017 44.9707 57.512C44.9707 60.5222 43.916 62.8806 43.0884 63.906H43.9307C44.9854 62.5583 45.9595 60.5735 45.9595 57.512ZM52.9614 57.8635V56.9553H48.1567V57.8635H52.9614ZM55.3198 61.6794H56.3818L61.2231 52.0481V51.1106H54.3384V52.0042H60.2197V52.0334L55.3198 61.6794ZM66.1743 61.8479C68.291 61.8479 69.8438 60.3245 69.8438 58.2517C69.8438 56.2522 68.3423 54.7581 66.3354 54.7581C64.9072 54.7581 63.6548 55.5784 63.2227 56.7649H63.2007C63.2007 53.6301 64.3066 51.8284 66.2402 51.8284C67.4194 51.8284 68.3789 52.5461 68.6426 53.6228H69.6533C69.353 52.0042 68.0054 50.9421 66.2476 50.9421C63.7427 50.9421 62.2339 53.0735 62.2339 56.6184C62.2339 57.9441 62.4683 59.0208 62.9443 59.8484C63.5962 61.1301 64.7534 61.8479 66.1743 61.8479ZM66.167 60.9543C64.6509 60.9543 63.4863 59.7458 63.4863 58.2078C63.4863 56.7722 64.6655 55.6443 66.1743 55.6443C67.7051 55.6443 68.8257 56.7649 68.8257 58.281C68.8257 59.7751 67.6538 60.9543 66.167 60.9543ZM76.311 61.6794H77.2852V59.2917H78.8599V58.4055H77.2852V51.0959H75.8203C73.4839 54.3699 72.0996 56.4426 70.9497 58.3762V59.2917H76.311V61.6794ZM71.9604 58.3762C73.0151 56.6624 74.3481 54.6702 76.2964 51.9749H76.311V58.4055H71.9604V58.3762ZM83.8989 61.8479C86.0156 61.8479 87.5684 60.3245 87.5684 58.2517C87.5684 56.2522 86.0669 54.7581 84.0601 54.7581C82.6318 54.7581 81.3794 55.5784 80.9473 56.7649H80.9253C80.9253 53.6301 82.0312 51.8284 83.9648 51.8284C85.144 51.8284 86.1035 52.5461 86.3672 53.6228H87.3779C87.0776 52.0042 85.73 50.9421 83.9722 50.9421C81.4673 50.9421 79.9585 53.0735 79.9585 56.6184C79.9585 57.9441 80.1929 59.0208 80.6689 59.8484C81.3208 61.1301 82.478 61.8479 83.8989 61.8479ZM83.8916 60.9543C82.3755 60.9543 81.2109 59.7458 81.2109 58.2078C81.2109 56.7722 82.3901 55.6443 83.8989 55.6443C85.4297 55.6443 86.5503 56.7649 86.5503 58.281C86.5503 59.7751 85.3784 60.9543 83.8916 60.9543ZM93.728 57.8635V56.9553H88.9233V57.8635H93.728ZM102.173 61.6794H103.228L99.2798 51.1106H98.2837L94.3286 61.6794H95.3906L96.5625 58.4421H101.001L102.173 61.6794ZM98.7598 52.3484H98.8037L100.701 57.5779H96.8628L98.7598 52.3484ZM107.878 57.512C107.878 60.0242 108.545 62.1702 109.907 63.906H110.75C109.644 62.5583 108.867 59.885 108.867 57.512C108.867 55.1389 109.644 52.4583 110.75 51.1106H109.907C108.545 52.8464 107.878 54.9998 107.878 57.512ZM113.049 61.6794V57.9075L114.353 56.4939L118.55 61.6794H119.832L115.056 55.7834L119.399 51.1106H118.132L113.108 56.5891H113.049V51.1106H112.053V61.6794H113.049ZM123.413 61.804C125.486 61.804 126.885 60.2878 126.885 57.8708C126.885 55.4465 125.486 53.9377 123.413 53.9377C121.348 53.9377 119.941 55.4465 119.941 57.8708C119.941 60.2878 121.34 61.804 123.413 61.804ZM123.413 60.947C121.919 60.947 120.93 59.8044 120.93 57.8708C120.93 55.9373 121.919 54.7947 123.413 54.7947C124.907 54.7947 125.903 55.9373 125.903 57.8708C125.903 59.8044 124.907 60.947 123.413 60.947ZM128.24 61.6794H129.207V51.1106H128.24V61.6794ZM131.008 61.6794H131.975V51.1106H131.008V61.6794ZM133.711 61.6794H134.678V56.9993C134.678 55.7029 135.483 54.802 136.604 54.802C137.644 54.802 138.347 55.5125 138.347 56.6038V61.6794H139.321V56.8821C139.321 55.6663 140.098 54.802 141.226 54.802C142.332 54.802 142.991 55.5125 142.991 56.6917V61.6794H143.958V56.4719C143.958 54.9338 142.983 53.9377 141.497 53.9377C140.347 53.9377 139.453 54.6042 139.094 55.5417H139.072C138.787 54.5823 137.981 53.9377 136.868 53.9377C135.762 53.9377 134.978 54.575 134.648 55.4685H134.626V54.0623H133.711V61.6794ZM148.682 61.804C150.754 61.804 152.153 60.2878 152.153 57.8708C152.153 55.4465 150.754 53.9377 148.682 53.9377C146.616 53.9377 145.21 55.4465 145.21 57.8708C145.21 60.2878 146.609 61.804 148.682 61.804ZM148.682 60.947C147.188 60.947 146.199 59.8044 146.199 57.8708C146.199 55.9373 147.188 54.7947 148.682 54.7947C150.176 54.7947 151.172 55.9373 151.172 57.8708C151.172 59.8044 150.176 60.947 148.682 60.947ZM153.442 61.6794H154.409V56.9333C154.409 55.7029 155.098 54.8606 156.182 54.8606C156.511 54.8606 156.782 54.9119 156.907 54.9705V54.0183C156.79 53.989 156.562 53.9377 156.306 53.9377C155.369 53.9377 154.658 54.4871 154.38 55.4172H154.358V54.0623H153.442V61.6794ZM160.525 60.8958C159.089 60.8958 158.13 59.6946 158.13 57.8562C158.13 56.0032 159.089 54.7947 160.525 54.7947C161.99 54.7947 162.979 56.0251 162.979 57.8489C162.979 59.6726 161.99 60.8958 160.525 60.8958ZM160.62 64.4993C162.656 64.4993 163.953 63.3274 163.953 61.5549V54.0623H163.03V55.6736H163.008C162.561 54.6335 161.587 53.9377 160.371 53.9377C158.423 53.9377 157.134 55.4832 157.134 57.8489C157.134 60.2073 158.423 61.7527 160.349 61.7527C161.565 61.7527 162.546 61.0422 162.957 60.0608H162.979V61.5916C162.979 62.8367 162.092 63.6643 160.664 63.6643C159.558 63.6643 158.745 63.1296 158.496 62.3826H157.493C157.705 63.5837 158.958 64.4993 160.62 64.4993ZM168.64 54.7874C170.017 54.7874 170.933 55.8347 170.955 57.3362H166.252C166.333 55.8347 167.278 54.7874 168.64 54.7874ZM170.896 59.5188C170.684 60.3538 169.885 60.9543 168.735 60.9543C167.219 60.9543 166.245 59.885 166.245 58.1638V58.1052H171.951V57.6951C171.951 55.4246 170.676 53.9377 168.655 53.9377C166.589 53.9377 165.249 55.5271 165.249 57.8928C165.249 60.3098 166.575 61.804 168.713 61.804C170.391 61.804 171.628 60.8372 171.855 59.5188H170.896ZM173.247 61.6794H174.214V57.1677C174.214 55.7542 175.1 54.802 176.418 54.802C177.693 54.802 178.425 55.5637 178.425 56.8967V61.6794H179.392V56.7429C179.392 55.0144 178.367 53.9377 176.697 53.9377C175.466 53.9377 174.573 54.5457 174.185 55.4685H174.163V54.0623H173.247V61.6794ZM194.436 61.6794V51.1106H193.279L189.368 60.3611H189.324L185.405 51.1106H184.255V61.6794H185.193V53.0076H185.237L188.906 61.6282H189.778L193.455 53.0076H193.499V61.6794H194.436ZM199.351 61.804C201.423 61.804 202.822 60.2878 202.822 57.8708C202.822 55.4465 201.423 53.9377 199.351 53.9377C197.285 53.9377 195.879 55.4465 195.879 57.8708C195.879 60.2878 197.278 61.804 199.351 61.804ZM199.351 60.947C197.856 60.947 196.868 59.8044 196.868 57.8708C196.868 55.9373 197.856 54.7947 199.351 54.7947C200.845 54.7947 201.841 55.9373 201.841 57.8708C201.841 59.8044 200.845 60.947 199.351 60.947ZM204.529 52.158V54.0623H203.394V54.8679H204.529V59.8044C204.529 61.1814 205.042 61.7234 206.316 61.7234C206.521 61.7234 206.931 61.7014 207.034 61.6794V60.8518C206.975 60.8665 206.609 60.8811 206.506 60.8811C205.803 60.8811 205.496 60.5442 205.496 59.7605V54.8679H206.997V54.0623H205.496V52.158H204.529ZM211.201 61.804C213.274 61.804 214.673 60.2878 214.673 57.8708C214.673 55.4465 213.274 53.9377 211.201 53.9377C209.136 53.9377 207.729 55.4465 207.729 57.8708C207.729 60.2878 209.128 61.804 211.201 61.804ZM211.201 60.947C209.707 60.947 208.718 59.8044 208.718 57.8708C208.718 55.9373 209.707 54.7947 211.201 54.7947C212.695 54.7947 213.691 55.9373 213.691 57.8708C213.691 59.8044 212.695 60.947 211.201 60.947ZM215.962 61.6794H216.929V56.9333C216.929 55.7029 217.617 54.8606 218.701 54.8606C219.031 54.8606 219.302 54.9119 219.426 54.9705V54.0183C219.309 53.989 219.082 53.9377 218.826 53.9377C217.888 53.9377 217.178 54.4871 216.899 55.4172H216.877V54.0623H215.962V61.6794ZM222.825 57.512C222.825 54.4504 221.851 52.4583 220.796 51.1106H219.954C220.781 52.136 221.836 54.5017 221.836 57.512C221.836 60.5222 220.781 62.8806 219.954 63.906H220.796C221.851 62.5583 222.825 60.5735 222.825 57.512Z" fill="#2E2D36"/>
<path d="M1.98486 92.5812V87.7838H6.8335V86.8903H1.98486V82.9205H7.2583V82.0123H0.98877V92.5812H1.98486ZM18.9478 92.5812V82.0123H17.7905L13.8794 91.2628H13.8354L9.91699 82.0123H8.76709V92.5812H9.70459V83.9093H9.74854L13.418 92.5299H14.2896L17.9663 83.9093H18.0103V92.5812H18.9478ZM21.9214 92.5812V82.0123H20.9253V92.5812H21.9214ZM30.4175 92.7496C32.644 92.7496 34.1821 91.4825 34.1821 89.7101C34.1821 88.3844 33.23 87.2931 31.8237 86.9928V86.9708C33.0103 86.6266 33.772 85.7257 33.772 84.6051C33.772 83.0084 32.373 81.8439 30.4175 81.8439C28.4692 81.8439 27.0557 83.0084 27.0557 84.6051C27.0557 85.7404 27.8174 86.6412 29.0112 86.9708V86.9928C27.605 87.2931 26.6528 88.3771 26.6528 89.7101C26.6528 91.4752 28.1982 92.7496 30.4175 92.7496ZM30.4175 91.8707C28.7842 91.8707 27.6709 90.9259 27.6709 89.6515C27.6709 88.3844 28.7988 87.4835 30.4175 87.4835C32.0435 87.4835 33.1641 88.3844 33.1641 89.6515C33.1641 90.9259 32.0508 91.8707 30.4175 91.8707ZM30.4175 86.59C29.0332 86.59 28.0518 85.799 28.0518 84.6857C28.0518 83.5504 29.0112 82.7155 30.4175 82.7155C31.8311 82.7155 32.7759 83.5504 32.7759 84.6857C32.7759 85.799 31.7944 86.59 30.4175 86.59ZM39.2944 92.7496C41.4551 92.7496 43.0078 91.2628 43.0078 89.1754C43.0078 87.1393 41.5283 85.6451 39.5142 85.6451C38.4448 85.6451 37.4854 86.0919 36.9727 86.8097H36.9434L37.3389 82.9059H42.3706V82.0123H36.5112L35.9106 87.8644H36.8701C37.3608 87.0221 38.2837 86.5167 39.353 86.5167C40.8838 86.5167 42.0044 87.652 42.0044 89.1974C42.0044 90.7501 40.8838 91.8634 39.3091 91.8634C37.9468 91.8634 36.8701 91.0138 36.731 89.8273H35.7495C35.8813 91.5338 37.3608 92.7496 39.2944 92.7496ZM44.3042 84.9713V84.9786H45.271V84.9713C45.2856 83.6823 46.3037 82.7228 47.6587 82.7228C48.9551 82.7228 49.9805 83.631 49.9805 84.7882C49.9805 85.7111 49.5996 86.3409 48.0908 87.9303L44.3555 91.8781V92.5812H51.2476V91.6876H45.7544V91.6583L48.6987 88.5822C50.4565 86.7584 50.9766 85.8868 50.9766 84.7296C50.9766 83.111 49.5337 81.8439 47.688 81.8439C45.7544 81.8439 44.3188 83.1696 44.3042 84.9713ZM56.3745 92.7496C58.7769 92.7496 60.1978 90.6256 60.1978 87.2858C60.1978 83.9679 58.7695 81.8439 56.3745 81.8439C53.9868 81.8439 52.5439 83.9752 52.5439 87.2931C52.5439 90.6329 53.9722 92.7496 56.3745 92.7496ZM56.3745 91.8707C54.5874 91.8707 53.5547 90.0909 53.5547 87.2858C53.5547 84.5319 54.6094 82.7301 56.3745 82.7301C58.147 82.7301 59.1943 84.5172 59.1943 87.2931C59.1943 90.0909 58.1616 91.8707 56.3745 91.8707ZM65.3247 92.7496C67.7271 92.7496 69.1479 90.6256 69.1479 87.2858C69.1479 83.9679 67.7197 81.8439 65.3247 81.8439C62.937 81.8439 61.4941 83.9752 61.4941 87.2931C61.4941 90.6329 62.9224 92.7496 65.3247 92.7496ZM65.3247 91.8707C63.5376 91.8707 62.5049 90.0909 62.5049 87.2858C62.5049 84.5319 63.5596 82.7301 65.3247 82.7301C67.0972 82.7301 68.1445 84.5172 68.1445 87.2931C68.1445 90.0909 67.1118 91.8707 65.3247 91.8707ZM73.2495 92.5812H74.2163V82.0123H73.2349C72.9199 82.2028 70.6787 83.7848 70.3857 83.9679V85.0372C70.6934 84.8468 72.9858 83.2355 73.2202 83.089H73.2495V92.5812ZM80.5005 88.4137C80.5005 90.9259 81.167 93.0719 82.5293 94.8077H83.3716C82.2656 93.4601 81.4893 90.7867 81.4893 88.4137C81.4893 86.0406 82.2656 83.36 83.3716 82.0123H82.5293C81.167 83.7482 80.5005 85.9015 80.5005 88.4137ZM85.6714 82.9059H88.2861C89.8242 82.9059 90.7544 83.7335 90.7544 85.1324C90.7544 86.546 89.8608 87.3663 88.3228 87.3663H85.6714V82.9059ZM85.6714 88.2526H88.3228C88.374 88.2526 88.4473 88.2526 88.4839 88.2526L90.9155 92.5812H92.0874L89.5239 88.0914C90.9375 87.7252 91.7871 86.5973 91.7871 85.1031C91.7871 83.2208 90.4688 82.0123 88.4033 82.0123H84.6753V92.5812H85.6714V88.2526ZM96.2109 92.7057C98.2837 92.7057 99.6826 91.1896 99.6826 88.7726C99.6826 86.3483 98.2837 84.8395 96.2109 84.8395C94.1455 84.8395 92.7393 86.3483 92.7393 88.7726C92.7393 91.1896 94.1382 92.7057 96.2109 92.7057ZM96.2109 91.8488C94.7168 91.8488 93.728 90.7062 93.728 88.7726C93.728 86.839 94.7168 85.6964 96.2109 85.6964C97.7051 85.6964 98.7012 86.839 98.7012 88.7726C98.7012 90.7062 97.7051 91.8488 96.2109 91.8488ZM100.4 92.5812H106.062V91.7755H101.514V91.7535L106.047 85.6964V84.964H100.4V85.7697H104.934V85.7916L100.4 91.8634V92.5812ZM113.584 84.964H112.617V89.483C112.617 90.9113 111.724 91.8414 110.398 91.8414C109.124 91.8414 108.406 91.0944 108.406 89.7467V84.964H107.432V89.9152C107.432 91.629 108.464 92.7057 110.12 92.7057C111.328 92.7057 112.244 92.1051 112.646 91.1676H112.668V92.5812H113.584V84.964ZM115.254 92.5812H116.221V87.901C116.221 86.6046 117.026 85.7037 118.147 85.7037C119.187 85.7037 119.89 86.4142 119.89 87.5055V92.5812H120.864V87.7838C120.864 86.568 121.641 85.7037 122.769 85.7037C123.875 85.7037 124.534 86.4142 124.534 87.5934V92.5812H125.5V87.3737C125.5 85.8356 124.526 84.8395 123.04 84.8395C121.89 84.8395 120.996 85.506 120.637 86.4435H120.615C120.33 85.484 119.524 84.8395 118.411 84.8395C117.305 84.8395 116.521 85.4767 116.191 86.3702H116.169V84.964H115.254V92.5812ZM131.36 82.9059H133.975C135.513 82.9059 136.443 83.7335 136.443 85.1324C136.443 86.546 135.549 87.3663 134.011 87.3663H131.36V82.9059ZM131.36 88.2526H134.011C134.062 88.2526 134.136 88.2526 134.172 88.2526L136.604 92.5812H137.776L135.212 88.0914C136.626 87.7252 137.476 86.5973 137.476 85.1031C137.476 83.2208 136.157 82.0123 134.092 82.0123H130.364V92.5812H131.36V88.2526ZM141.899 92.7057C143.972 92.7057 145.371 91.1896 145.371 88.7726C145.371 86.3483 143.972 84.8395 141.899 84.8395C139.834 84.8395 138.428 86.3483 138.428 88.7726C138.428 91.1896 139.827 92.7057 141.899 92.7057ZM141.899 91.8488C140.405 91.8488 139.417 90.7062 139.417 88.7726C139.417 86.839 140.405 85.6964 141.899 85.6964C143.394 85.6964 144.39 86.839 144.39 88.7726C144.39 90.7062 143.394 91.8488 141.899 91.8488ZM150.322 92.7057C152.241 92.7057 153.545 91.1456 153.545 88.7726C153.545 86.3995 152.241 84.8395 150.33 84.8395C149.136 84.8395 148.154 85.506 147.722 86.5533H147.7V82.0123H146.726V92.5812H147.656V90.9698H147.678C148.132 92.0392 149.106 92.7057 150.322 92.7057ZM150.139 85.6964C151.604 85.6964 152.549 86.9122 152.549 88.7726C152.549 90.6403 151.604 91.8488 150.139 91.8488C148.704 91.8488 147.693 90.6036 147.693 88.7726C147.693 86.9489 148.711 85.6964 150.139 85.6964ZM157.939 92.7057C160.012 92.7057 161.411 91.1896 161.411 88.7726C161.411 86.3483 160.012 84.8395 157.939 84.8395C155.874 84.8395 154.468 86.3483 154.468 88.7726C154.468 91.1896 155.867 92.7057 157.939 92.7057ZM157.939 91.8488C156.445 91.8488 155.457 90.7062 155.457 88.7726C155.457 86.839 156.445 85.6964 157.939 85.6964C159.434 85.6964 160.43 86.839 160.43 88.7726C160.43 90.7062 159.434 91.8488 157.939 91.8488ZM163.118 83.0597V84.964H161.982V85.7697H163.118V90.7062C163.118 92.0831 163.63 92.6251 164.905 92.6251C165.11 92.6251 165.52 92.6031 165.623 92.5812V91.7535C165.564 91.7682 165.198 91.7828 165.095 91.7828C164.392 91.7828 164.084 91.4459 164.084 90.6622V85.7697H165.586V84.964H164.084V83.0597H163.118ZM167.029 92.5812H167.996V84.964H167.029V92.5812ZM167.512 83.4259C167.871 83.4259 168.164 83.1403 168.164 82.7814C168.164 82.4298 167.871 82.1442 167.512 82.1442C167.161 82.1442 166.868 82.4298 166.868 82.7814C166.868 83.1403 167.161 83.4259 167.512 83.4259ZM175.928 87.3737C175.737 86.0114 174.587 84.8395 172.793 84.8395C170.72 84.8395 169.351 86.3702 169.351 88.7726C169.351 91.2115 170.72 92.7057 172.8 92.7057C174.485 92.7057 175.723 91.6803 175.935 90.2228H174.976C174.756 91.2115 173.958 91.8488 172.808 91.8488C171.321 91.8488 170.339 90.6842 170.339 88.7726C170.339 86.8903 171.313 85.6964 172.8 85.6964C174.001 85.6964 174.771 86.4362 174.976 87.3737H175.928ZM176.99 87.0001C176.99 88.0109 177.649 88.6627 179.026 89.007L180.264 89.3146C181.282 89.5636 181.663 89.9152 181.663 90.5743C181.663 91.3727 180.908 91.9073 179.766 91.9073C178.623 91.9073 177.876 91.3507 177.737 90.4498H176.77C176.895 91.7902 178.074 92.7057 179.707 92.7057C181.428 92.7057 182.637 91.7902 182.637 90.5011C182.637 89.4098 182.065 88.8531 180.542 88.4723L179.414 88.2013C178.396 87.9523 177.949 87.5714 177.949 86.9489C177.949 86.1871 178.66 85.6378 179.7 85.6378C180.754 85.6378 181.45 86.1945 181.567 87.0953H182.498C182.402 85.755 181.289 84.8395 179.729 84.8395C178.118 84.8395 176.99 85.7404 176.99 87.0001ZM186.292 88.4137C186.292 85.3522 185.317 83.36 184.263 82.0123H183.42C184.248 83.0377 185.303 85.4034 185.303 88.4137C185.303 91.424 184.248 93.7823 183.42 94.8077H184.263C185.317 93.4601 186.292 91.4752 186.292 88.4137Z" fill="#2E2D36"/>
<path d="M1.98486 123.483V112.914H0.98877V123.483H1.98486ZM10.2539 122.575H4.9585V112.914H3.9624V123.483H10.2539V122.575ZM21.8481 123.483V112.914H20.6909L16.7798 122.165H16.7358L12.8174 112.914H11.6675V123.483H12.605V114.811H12.6489L16.3184 123.432H17.1899L20.8667 114.811H20.9106V123.483H21.8481ZM30.3442 123.651C32.5708 123.651 34.1089 122.384 34.1089 120.612C34.1089 119.286 33.1567 118.195 31.7505 117.895V117.873C32.937 117.528 33.6987 116.627 33.6987 115.507C33.6987 113.91 32.2998 112.746 30.3442 112.746C28.396 112.746 26.9824 113.91 26.9824 115.507C26.9824 116.642 27.7441 117.543 28.938 117.873V117.895C27.5317 118.195 26.5796 119.279 26.5796 120.612C26.5796 122.377 28.125 123.651 30.3442 123.651ZM30.3442 122.772C28.7109 122.772 27.5977 121.828 27.5977 120.553C27.5977 119.286 28.7256 118.385 30.3442 118.385C31.9702 118.385 33.0908 119.286 33.0908 120.553C33.0908 121.828 31.9775 122.772 30.3442 122.772ZM30.3442 117.492C28.96 117.492 27.9785 116.701 27.9785 115.587C27.9785 114.452 28.938 113.617 30.3442 113.617C31.7578 113.617 32.7026 114.452 32.7026 115.587C32.7026 116.701 31.7212 117.492 30.3442 117.492ZM39.2212 123.651C41.3818 123.651 42.9346 122.165 42.9346 120.077C42.9346 118.041 41.4551 116.547 39.4409 116.547C38.3716 116.547 37.4121 116.994 36.8994 117.711H36.8701L37.2656 113.808H42.2974V112.914H36.438L35.8374 118.766H36.7969C37.2876 117.924 38.2104 117.418 39.2798 117.418C40.8105 117.418 41.9312 118.554 41.9312 120.099C41.9312 121.652 40.8105 122.765 39.2358 122.765C37.8735 122.765 36.7969 121.916 36.6577 120.729H35.6763C35.8081 122.436 37.2876 123.651 39.2212 123.651ZM44.231 115.873V115.88H45.1978V115.873C45.2124 114.584 46.2305 113.625 47.5854 113.625C48.8818 113.625 49.9072 114.533 49.9072 115.69C49.9072 116.613 49.5264 117.243 48.0176 118.832L44.2822 122.78V123.483H51.1743V122.589H45.6812V122.56L48.6255 119.484C50.3833 117.66 50.9033 116.789 50.9033 115.631C50.9033 114.013 49.4604 112.746 47.6147 112.746C45.6812 112.746 44.2456 114.071 44.231 115.873ZM54.7485 118.451H56.0229C57.7222 118.451 58.7622 119.271 58.7622 120.619C58.7622 121.872 57.6489 122.772 56.1182 122.772C54.5947 122.772 53.5327 121.923 53.4521 120.744H52.4854C52.5513 122.436 53.9941 123.651 56.1255 123.651C58.1836 123.651 59.7803 122.377 59.7803 120.59C59.7803 119.096 58.7402 118.092 57.1216 117.997V117.968C58.4692 117.726 59.3262 116.774 59.3262 115.448C59.3262 113.881 57.9272 112.746 56.0669 112.746C54.1626 112.746 52.8296 113.888 52.7051 115.587H53.6719C53.7817 114.416 54.7119 113.625 56.0229 113.625C57.4512 113.625 58.3154 114.43 58.3154 115.573C58.3154 116.752 57.3633 117.602 55.979 117.602H54.7485V118.451ZM64.9731 119.315C64.9731 121.828 65.6396 123.974 67.002 125.709H67.8442C66.7383 124.362 65.9619 121.688 65.9619 119.315C65.9619 116.942 66.7383 114.262 67.8442 112.914H67.002C65.6396 114.65 64.9731 116.803 64.9731 119.315ZM72.9272 123.483V113.822H76.4209V112.914H68.4375V113.822H71.9238V123.483H72.9272ZM81.3574 123.651C82.0898 123.651 82.7417 123.52 83.3276 123.271L84.3896 124.721H85.5176L84.1406 122.831C85.4297 121.916 86.1621 120.297 86.1621 118.202C86.1621 114.855 84.3018 112.746 81.3574 112.746C78.4131 112.746 76.5601 114.855 76.5601 118.202C76.5601 121.549 78.4058 123.651 81.3574 123.651ZM81.3574 122.721C79.0503 122.721 77.5854 120.971 77.5854 118.202C77.5854 115.426 79.043 113.676 81.3574 113.676C83.6719 113.676 85.1294 115.426 85.1294 118.202C85.1294 119.923 84.5654 121.271 83.5547 122.025L82.5073 120.59H81.3794L82.749 122.472C82.3315 122.633 81.8628 122.721 81.3574 122.721ZM92.3364 119.667V118.759H87.5317V119.667H92.3364ZM94.1235 112.914V123.483H97.5513C100.723 123.483 102.561 121.542 102.561 118.195C102.561 114.855 100.715 112.914 97.5513 112.914H94.1235ZM95.127 113.822H97.4927C100.093 113.822 101.543 115.39 101.543 118.202C101.543 121.007 100.093 122.575 97.4927 122.575H95.127V113.822ZM104.033 123.483H105V118.737C105 117.506 105.688 116.664 106.772 116.664C107.102 116.664 107.373 116.715 107.498 116.774V115.822C107.38 115.792 107.153 115.741 106.897 115.741C105.959 115.741 105.249 116.291 104.971 117.221H104.949V115.866H104.033V123.483ZM108.611 123.483H109.578V115.866H108.611V123.483ZM109.094 114.328C109.453 114.328 109.746 114.042 109.746 113.683C109.746 113.332 109.453 113.046 109.094 113.046C108.743 113.046 108.45 113.332 108.45 113.683C108.45 114.042 108.743 114.328 109.094 114.328ZM117.29 115.866H116.279L113.958 122.465H113.936L111.621 115.866H110.596L113.43 123.483H114.463L117.29 115.866ZM121.091 116.591C122.468 116.591 123.384 117.638 123.406 119.14H118.704C118.784 117.638 119.729 116.591 121.091 116.591ZM123.347 121.322C123.135 122.157 122.336 122.758 121.187 122.758C119.67 122.758 118.696 121.688 118.696 119.967V119.909H124.402V119.499C124.402 117.228 123.127 115.741 121.106 115.741C119.041 115.741 117.7 117.331 117.7 119.696C117.7 122.113 119.026 123.607 121.165 123.607C122.842 123.607 124.08 122.641 124.307 121.322H123.347ZM128.049 119.315C128.049 116.254 127.075 114.262 126.021 112.914H125.178C126.006 113.939 127.061 116.305 127.061 119.315C127.061 122.326 126.006 124.684 125.178 125.709H126.021C127.075 124.362 128.049 122.377 128.049 119.315Z" fill="#2E2D36"/>
<path d="M244.985 146.383C247.388 146.383 248.809 144.259 248.809 140.919C248.809 137.602 247.38 135.478 244.985 135.478C242.598 135.478 241.155 137.609 241.155 140.927C241.155 144.267 242.583 146.383 244.985 146.383ZM244.985 145.504C243.198 145.504 242.166 143.725 242.166 140.919C242.166 138.166 243.22 136.364 244.985 136.364C246.758 136.364 247.805 138.151 247.805 140.927C247.805 143.725 246.772 145.504 244.985 145.504Z" fill="#2E2D36"/>
<path d="M30.7285 20.74H32.1128L28.2163 10.1711H26.9126L23.0161 20.74H24.4004L25.4624 17.7151H29.6665L30.7285 20.74ZM27.5424 11.7751H27.5864L29.2783 16.5945H25.8506L27.5424 11.7751ZM35.8481 20.74V11.3577H39.1806V10.1711H31.1972V11.3577H34.5298V20.74H35.8481ZM40.5722 10.1711V20.74H44.1245C47.2666 20.74 49.1123 18.7844 49.1123 15.4519C49.1123 12.1267 47.2592 10.1711 44.1245 10.1711H40.5722ZM41.8906 11.3577H44.0366C46.4389 11.3577 47.7646 12.8225 47.7646 15.4666C47.7646 18.0886 46.4316 19.5535 44.0366 19.5535H41.8906V11.3577ZM57.2934 20.9158C59.5346 20.9158 61.1313 19.656 61.1313 17.8835C61.1313 16.5725 60.2231 15.4885 58.8535 15.1663V15.137C60.0034 14.7708 60.6992 13.8772 60.6992 12.7786C60.6992 11.1672 59.271 9.99536 57.2934 9.99536C55.3305 9.99536 53.8803 11.1746 53.8803 12.7712C53.8803 13.8845 54.5908 14.7854 55.7334 15.137V15.1663C54.3711 15.4812 53.4629 16.5652 53.4629 17.8835C53.4629 19.6487 55.0595 20.9158 57.2934 20.9158ZM57.2934 19.7659C55.8432 19.7659 54.8032 18.9382 54.8032 17.7883C54.8032 16.6311 55.8432 15.8035 57.2934 15.8035C58.7509 15.8035 59.7837 16.6238 59.7837 17.7883C59.7837 18.9382 58.7509 19.7659 57.2934 19.7659ZM57.2934 14.6462C56.0556 14.6462 55.1914 13.9211 55.1914 12.8958C55.1914 11.863 56.0556 11.1306 57.2934 11.1306C58.5312 11.1306 59.3955 11.8557 59.3955 12.8958C59.3955 13.9211 58.5239 14.6462 57.2934 14.6462ZM66.2876 20.9158C68.4922 20.9158 70.0522 19.429 70.0522 17.3049C70.0522 15.2542 68.5874 13.7673 66.5586 13.7673C65.5478 13.7673 64.6689 14.1482 64.1928 14.7854H64.1635L64.4858 11.343H69.4516V10.1711H63.4018L62.8232 16.0891H64.061C64.4931 15.3494 65.3354 14.9026 66.3242 14.9026C67.7304 14.9026 68.7339 15.9207 68.7339 17.3416C68.7339 18.7625 67.7378 19.7585 66.3022 19.7585C65.0351 19.7585 64.0757 18.9822 63.9585 17.8542H62.6621C62.7719 19.656 64.2661 20.9158 66.2876 20.9158ZM71.3633 13.218V13.2253H72.6377V13.218C72.6377 12.0388 73.5752 11.1453 74.813 11.1453C75.9775 11.1453 76.9077 11.9583 76.9077 12.9763C76.9077 13.8552 76.5708 14.4192 75.1499 15.9133L71.4292 19.8318V20.74H78.4018V19.5681H73.2529V19.5388L75.9262 16.7776C77.6914 14.9539 78.226 14.075 78.226 12.8958C78.226 11.2771 76.7392 9.99536 74.8496 9.99536C72.8574 9.99536 71.3633 11.3723 71.3633 13.218ZM82.0786 15.8621H83.4043C84.9131 15.8621 85.8506 16.6311 85.8506 17.8762C85.8506 18.9822 84.8471 19.7732 83.4482 19.7732C82.0273 19.7732 81.1264 19.0261 81.0092 17.9421H79.7422C79.8374 19.6926 81.2509 20.9158 83.4629 20.9158C85.5356 20.9158 87.1909 19.6487 87.1909 17.8323C87.1909 16.3455 86.1655 15.3567 84.5688 15.2615V15.2322C85.8872 14.9978 86.7368 14.0457 86.7368 12.72C86.7368 11.1306 85.3086 9.99536 83.4189 9.99536C81.4341 9.99536 80.101 11.1453 79.9546 12.9397H81.2216C81.3388 11.8337 82.1445 11.1379 83.3603 11.1379C84.7007 11.1379 85.4111 11.8484 85.4111 12.8958C85.4111 13.9651 84.5615 14.7488 83.3457 14.7488H82.0786V15.8621ZM92.4131 16.5798C92.4131 19.1287 93.0869 21.2014 94.4931 22.9885H95.5625C94.5224 21.78 93.7094 18.9749 93.7094 16.5798C93.7094 14.1848 94.5224 11.3796 95.5625 10.1711H94.4931C93.0869 11.9583 92.4131 14.031 92.4131 16.5798ZM105.392 20.74V10.1711H104.073V14.7415H98.2724V10.1711H96.9541V20.74H98.2724V15.928H104.073V20.74H105.392ZM115.873 20.74V10.1711H107.589V20.74H108.915V11.3723H114.569V20.74H115.873ZM122.538 9.99536C119.542 9.99536 117.667 12.1047 117.667 15.4592C117.667 18.8137 119.542 20.9158 122.538 20.9158C125.533 20.9158 127.408 18.8137 127.408 15.4592C127.408 12.1047 125.533 9.99536 122.538 9.99536ZM122.538 11.2112C124.698 11.2112 126.053 12.8518 126.053 15.4592C126.053 18.0593 124.698 19.7 122.538 19.7C120.377 19.7 119.022 18.0593 119.022 15.4592C119.022 12.8518 120.377 11.2112 122.538 11.2112ZM139.142 20.74H140.526L136.629 10.1711H135.326L131.429 20.74H132.813L133.875 17.7151H138.08L139.142 20.74ZM135.956 11.7751H135.999L137.691 16.5945H134.264L135.956 11.7751ZM144.554 20.74V11.3577H147.887V10.1711H139.903V11.3577H143.236V20.74H144.554ZM151.769 16.5798C151.769 13.2327 150.655 11.4016 149.688 10.1711H148.619C149.256 10.9109 150.472 13.262 150.472 16.5798C150.472 19.8977 149.264 22.2415 148.619 22.9885H149.688C150.655 21.7581 151.769 19.927 151.769 16.5798Z" fill="#2E2D36"/>
<path d="M306.475 146.383C308.877 146.383 310.298 144.259 310.298 140.919C310.298 137.602 308.87 135.478 306.475 135.478C304.087 135.478 302.645 137.609 302.645 140.927C302.645 144.267 304.073 146.383 306.475 146.383ZM306.475 145.504C304.688 145.504 303.655 143.725 303.655 140.919C303.655 138.166 304.71 136.364 306.475 136.364C308.248 136.364 309.295 138.151 309.295 140.927C309.295 143.725 308.262 145.504 306.475 145.504ZM312.071 148.236L312.994 144.706H311.961L311.258 148.236H312.071ZM318.633 146.383C320.794 146.383 322.347 144.896 322.347 142.809C322.347 140.773 320.867 139.279 318.853 139.279C317.784 139.279 316.824 139.726 316.312 140.443H316.282L316.678 136.54H321.709V135.646H315.85L315.25 141.498H316.209C316.7 140.656 317.623 140.15 318.692 140.15C320.223 140.15 321.343 141.286 321.343 142.831C321.343 144.384 320.223 145.497 318.648 145.497C317.286 145.497 316.209 144.647 316.07 143.461H315.088C315.22 145.167 316.7 146.383 318.633 146.383Z" fill="#2E2D36"/>
<path d="M382.698 146.215H383.664V135.646H382.683C382.368 135.836 380.127 137.418 379.834 137.602V138.671C380.141 138.48 382.434 136.869 382.668 136.723H382.698V146.215Z" fill="#2E2D36"/>
<path d="M449.352 138.605V138.612H450.319V138.605C450.333 137.316 451.351 136.356 452.706 136.356C454.003 136.356 455.028 137.265 455.028 138.422C455.028 139.345 454.647 139.975 453.138 141.564L449.403 145.512V146.215H456.295V145.321H450.802V145.292L453.746 142.216C455.504 140.392 456.024 139.521 456.024 138.363C456.024 136.745 454.581 135.478 452.736 135.478C450.802 135.478 449.367 136.803 449.352 138.605Z" fill="#2E2D36"/>
<path d="M511.842 138.39V138.397H512.809V138.39C512.824 137.101 513.842 136.142 515.197 136.142C516.493 136.142 517.519 137.05 517.519 138.207C517.519 139.13 517.138 139.76 515.629 141.349L511.894 145.297V146H518.786V145.106H513.292V145.077L516.237 142.001C517.995 140.177 518.515 139.306 518.515 138.148C518.515 136.53 517.072 135.263 515.226 135.263C513.292 135.263 511.857 136.588 511.842 138.39ZM520.998 148.021L521.92 144.491H520.888L520.185 148.021H520.998ZM527.56 146.168C529.721 146.168 531.273 144.682 531.273 142.594C531.273 140.558 529.794 139.064 527.78 139.064C526.71 139.064 525.751 139.511 525.238 140.229H525.209L525.604 136.325H530.636V135.431H524.777L524.176 141.283H525.136C525.626 140.441 526.549 139.936 527.619 139.936C529.149 139.936 530.27 141.071 530.27 142.616C530.27 144.169 529.149 145.282 527.575 145.282C526.212 145.282 525.136 144.433 524.997 143.246H524.015C524.147 144.953 525.626 146.168 527.56 146.168Z" fill="#2E2D36"/>
<path d="M590.357 141.183H591.631C593.33 141.183 594.37 142.003 594.37 143.351C594.37 144.604 593.257 145.504 591.726 145.504C590.203 145.504 589.141 144.655 589.06 143.476H588.093C588.159 145.167 589.602 146.383 591.734 146.383C593.792 146.383 595.388 145.109 595.388 143.322C595.388 141.828 594.348 140.824 592.73 140.729V140.7C594.077 140.458 594.934 139.506 594.934 138.18C594.934 136.613 593.535 135.478 591.675 135.478C589.771 135.478 588.438 136.62 588.313 138.319H589.28C589.39 137.147 590.32 136.356 591.631 136.356C593.059 136.356 593.924 137.162 593.924 138.305C593.924 139.484 592.971 140.333 591.587 140.333H590.357V141.183Z" fill="#2E2D36"/>
<rect x="243.584" y="45.7578" width="239.229" height="15.6786" rx="3.17125" fill="#F7F7F7"/>
<rect x="243.584" y="76.1014" width="127.672" height="15.6786" rx="3.17125" fill="#F7F7F7"/>
<rect x="243.584" y="106.445" width="256.057" height="15.6786" rx="3.17125" fill="#F7F7F7"/>
<path d="M449.29 51.6482V51.6544H450.107V51.6482C450.12 50.5581 450.981 49.7467 452.127 49.7467C453.223 49.7467 454.09 50.5147 454.09 51.4934C454.09 52.2738 453.768 52.8065 452.492 54.1505L449.333 57.489V58.0836H455.162V57.328H450.516V57.3032L453.006 54.7018C454.493 53.1595 454.932 52.4224 454.932 51.4438C454.932 50.075 453.712 49.0034 452.151 49.0034C450.516 49.0034 449.302 50.1245 449.29 51.6482ZM457.032 59.7931L457.813 56.8077H456.939L456.345 59.7931H457.032ZM461.071 58.0836H461.888V49.1459H461.058C460.792 49.3069 458.896 50.6448 458.649 50.7997V51.704C458.909 51.5429 460.848 50.1803 461.046 50.0564H461.071V58.0836ZM467.103 58.2261C468.986 58.2261 470.287 57.1545 470.287 55.6556C470.287 54.5345 469.482 53.6117 468.293 53.3577V53.3391C469.296 53.048 469.94 52.2862 469.94 51.3385C469.94 49.9883 468.757 49.0034 467.103 49.0034C465.456 49.0034 464.26 49.9883 464.26 51.3385C464.26 52.2986 464.905 53.0604 465.914 53.3391V53.3577C464.725 53.6117 463.92 54.5284 463.92 55.6556C463.92 57.1483 465.227 58.2261 467.103 58.2261ZM467.103 57.4828C465.722 57.4828 464.781 56.6838 464.781 55.6061C464.781 54.5345 465.734 53.7727 467.103 53.7727C468.478 53.7727 469.426 54.5345 469.426 55.6061C469.426 56.6838 468.485 57.4828 467.103 57.4828ZM467.103 53.0171C465.933 53.0171 465.103 52.3481 465.103 51.4067C465.103 50.4466 465.914 49.7405 467.103 49.7405C468.299 49.7405 469.098 50.4466 469.098 51.4067C469.098 52.3481 468.268 53.0171 467.103 53.0171Z" fill="#D18200"/>
<path d="M347.27 88.5697C349.302 88.5697 350.503 86.7735 350.503 83.9491C350.503 81.1433 349.296 79.3471 347.27 79.3471C345.251 79.3471 344.031 81.1495 344.031 83.9553C344.031 86.7797 345.239 88.5697 347.27 88.5697ZM347.27 87.8264C345.759 87.8264 344.886 86.3213 344.886 83.9491C344.886 81.6202 345.777 80.0965 347.27 80.0965C348.769 80.0965 349.655 81.6078 349.655 83.9553C349.655 86.3213 348.781 87.8264 347.27 87.8264ZM352.002 90.1367L352.783 87.1513H351.909L351.315 90.1367H352.002ZM357.36 88.5697C359.491 88.5697 360.748 86.7611 360.748 83.7695C360.748 82.6422 360.55 81.7379 360.147 81.038C359.602 79.9603 358.623 79.3471 357.416 79.3471C355.619 79.3471 354.313 80.6416 354.313 82.4068C354.313 84.0854 355.576 85.3427 357.279 85.3427C358.506 85.3427 359.571 84.6366 359.912 83.6332C359.912 83.6332 359.912 83.6332 359.918 83.6332C359.918 83.6332 359.918 83.6332 359.924 83.6332C359.924 83.7013 359.93 83.7819 359.93 83.8376C359.887 86.3399 358.97 87.8264 357.366 87.8264C356.332 87.8264 355.551 87.1947 355.335 86.3028H354.474C354.721 87.653 355.849 88.5697 357.36 88.5697ZM357.416 84.5933C356.109 84.5933 355.167 83.6332 355.167 82.3821C355.167 81.1061 356.152 80.1089 357.422 80.1089C358.71 80.1089 359.695 81.1309 359.695 82.4254C359.695 83.627 358.698 84.5933 357.416 84.5933Z" fill="#D18200"/>
<path d="M472.757 112.335V112.342H473.575V112.335C473.587 111.245 474.448 110.434 475.594 110.434C476.69 110.434 477.557 111.202 477.557 112.181C477.557 112.961 477.235 113.494 475.959 114.838L472.8 118.176V118.771H478.629V118.015H473.983V117.99L476.473 115.389C477.96 113.847 478.4 113.11 478.4 112.131C478.4 110.762 477.179 109.691 475.619 109.691C473.983 109.691 472.769 110.812 472.757 112.335ZM480.499 120.48L481.28 117.495H480.406L479.812 120.48H480.499ZM484.773 114.516H485.851C487.288 114.516 488.167 115.209 488.167 116.349C488.167 117.408 487.226 118.17 485.931 118.17C484.643 118.17 483.745 117.452 483.677 116.454H482.859C482.915 117.885 484.135 118.913 485.937 118.913C487.678 118.913 489.028 117.836 489.028 116.324C489.028 115.061 488.149 114.212 486.78 114.132V114.107C487.919 113.903 488.644 113.097 488.644 111.976C488.644 110.651 487.461 109.691 485.888 109.691C484.278 109.691 483.15 110.657 483.045 112.094H483.863C483.955 111.103 484.742 110.434 485.851 110.434C487.059 110.434 487.789 111.115 487.789 112.082C487.789 113.079 486.984 113.797 485.814 113.797H484.773V114.516Z" fill="#D18200"/>
<rect x="243.584" y="5.41479" width="335.371" height="15.6781" rx="3.17125" fill="#D18200"/>
<path d="M544.805 11.9389V11.9451H545.623V11.9389C545.635 10.8487 546.496 10.0374 547.642 10.0374C548.739 10.0374 549.606 10.8054 549.606 11.784C549.606 12.5644 549.284 13.0971 548.008 14.4412L544.849 17.7797V18.3743H550.677V17.6186H546.032V17.5938L548.522 14.9924C550.008 13.4502 550.448 12.7131 550.448 11.7345C550.448 10.3656 549.228 9.29409 547.667 9.29409C546.032 9.29409 544.818 10.4152 544.805 11.9389ZM552.548 20.0838L553.328 17.0983H552.455L551.86 20.0838H552.548ZM558.097 18.5167C559.98 18.5167 561.281 17.4452 561.281 15.9463C561.281 14.8252 560.476 13.9023 559.287 13.6484V13.6298C560.29 13.3387 560.934 12.5768 560.934 11.6292C560.934 10.2789 559.751 9.29409 558.097 9.29409C556.45 9.29409 555.255 10.2789 555.255 11.6292C555.255 12.5892 555.899 13.3511 556.908 13.6298V13.6484C555.719 13.9023 554.914 14.819 554.914 15.9463C554.914 17.439 556.221 18.5167 558.097 18.5167ZM558.097 17.7735C556.716 17.7735 555.775 16.9745 555.775 15.8967C555.775 14.8252 556.729 14.0634 558.097 14.0634C559.473 14.0634 560.42 14.8252 560.42 15.8967C560.42 16.9745 559.479 17.7735 558.097 17.7735ZM558.097 13.3077C556.927 13.3077 556.097 12.6388 556.097 11.6973C556.097 10.7373 556.908 10.0312 558.097 10.0312C559.293 10.0312 560.092 10.7373 560.092 11.6973C560.092 12.6388 559.262 13.3077 558.097 13.3077ZM566.856 18.3743H567.679V16.3551H569.011V15.6056H567.679V9.42416H566.441C564.465 12.1928 563.294 13.9457 562.322 15.5808V16.3551H566.856V18.3743ZM563.176 15.5808C564.068 14.1315 565.196 12.4468 566.843 10.1674H566.856V15.6056H563.176V15.5808Z" fill="white"/>
</svg>
