<svg width="176" height="49" viewBox="0 0 176 49" fill="none" xmlns="http://www.w3.org/2000/svg">
<path fill-rule="evenodd" clip-rule="evenodd" d="M25.6946 0.224929C25.8913 0.0608646 26.1448 -0.0186635 26.3999 0.00370652L27.4918 0.107105L27.3501 2.05577L27.2492 3.39837L26.8456 3.3586L26.9464 2.01561L26.6221 1.99572L25.6118 3.2554L25.2071 3.21563L26.2185 1.93547C25.9637 1.90989 25.7294 1.78448 25.5667 1.58662C25.404 1.38875 25.3261 1.13451 25.35 0.879387C25.374 0.624267 25.4979 0.388992 25.6946 0.224929ZM26.2785 1.5704L26.9859 1.63005L27.0884 0.473375L26.3799 0.413722C26.3036 0.404488 26.2262 0.41104 26.1526 0.432972C26.079 0.454904 26.0106 0.491748 25.9518 0.541217C25.893 0.590686 25.845 0.651723 25.8107 0.720539C25.7765 0.789356 25.7568 0.864482 25.7527 0.941255C25.7437 1.01751 25.7504 1.09479 25.7723 1.16838C25.7942 1.24197 25.8309 1.3103 25.8801 1.3692C25.9294 1.4281 25.9901 1.47633 26.0586 1.51092C26.1271 1.54552 26.2019 1.56575 26.2785 1.5704ZM23.8318 0.00369068L23.4066 0.0235751L22.6992 3.29674L23.104 3.27686L23.3057 2.32121L24.0721 2.2888L24.3556 3.22337L24.7592 3.20348L23.8318 0.00369068ZM23.4066 1.89271L23.6464 0.755121L23.9707 1.87302L23.4066 1.89271ZM21.4294 0.190099L21.8294 0.124083L22.3302 3.34058L21.9254 3.40182L21.6852 1.79596L20.5128 1.9787L20.7524 3.58416L20.3477 3.64382L19.8509 0.433086L20.2559 0.373433L20.4383 1.57544L21.6106 1.39151L21.4294 0.190099ZM19.7478 3.44268L19.6683 3.46256L18.1492 0.860692L17.7448 0.965284L17.8265 3.97041L17.7258 3.99029L17.9274 4.70196L18.3119 4.60094L18.211 4.27524L19.4241 3.92905L19.5245 4.25476L19.9088 4.15275L19.7478 3.44268ZM18.2321 3.8694L18.1504 1.6324L19.2421 3.58445L18.2321 3.8694ZM15.7613 1.63331L16.1444 1.47105L17.4044 4.45848L17.0201 4.62074L16.0904 2.38573L15.9282 5.06893L15.5439 5.23238L14.2839 2.24416L14.6682 2.08071L15.5992 4.3177L15.7613 1.63331ZM14.5697 4.56067L13.9823 3.5233C13.8423 3.27708 13.6107 3.09622 13.3379 3.02013C13.0652 2.94403 12.7735 2.97888 12.5264 3.11706C12.2822 3.26076 12.1034 3.49388 12.0278 3.76712C11.9523 4.04035 11.9859 4.33227 12.1216 4.58115L12.7078 5.61712C12.8527 5.8543 13.0841 6.0258 13.353 6.09539C13.622 6.16497 13.9074 6.12717 14.1491 5.98999C14.3907 5.8528 14.5695 5.62698 14.6478 5.36025C14.7261 5.09353 14.6976 4.8068 14.5685 4.56067H14.5697ZM13.9696 5.67857C13.8102 5.76703 13.6223 5.78875 13.4469 5.73897C13.2716 5.68919 13.1231 5.57196 13.0339 5.41291L12.4465 4.37674C12.4022 4.29813 12.3739 4.21156 12.3632 4.12198C12.3525 4.03241 12.3596 3.94159 12.384 3.85475C12.4084 3.76792 12.4498 3.68677 12.5057 3.61596C12.5615 3.54516 12.6308 3.4861 12.7096 3.44217C12.7878 3.39736 12.8741 3.36861 12.9635 3.35761C13.0529 3.3466 13.1436 3.35356 13.2303 3.37808C13.317 3.4026 13.398 3.44418 13.4684 3.50039C13.5388 3.5566 13.5973 3.62631 13.6405 3.70544L14.2231 4.744C14.3108 4.90274 14.3328 5.08959 14.2842 5.26436C14.2357 5.43912 14.1206 5.58785 13.9636 5.67857H13.9696ZM37.2048 10.3583C33.7875 7.24557 29.3531 5.49215 24.738 5.42308V10.0076H29.6394V10.0189H31.6241C31.649 10.0189 34.1165 10.4715 34.3389 13.1155L34.6643 18.1341C34.6647 18.138 34.6653 18.1453 34.666 18.1558H35.5769V18.1439C35.6305 18.1606 36.9082 18.5728 36.8609 20.8034V24.1267H43.3946C43.3877 23.6027 43.3591 23.0774 43.3083 22.5521C42.8561 17.8705 40.6807 13.5243 37.2048 10.3583ZM43.3949 24.604H36.8609V27.5661C36.9062 29.6921 35.7174 30.1447 35.5864 30.1863V30.1946H35.0141V31.5648C35.0141 32.3173 34.5727 32.5275 34.3922 32.5827L34.4915 36.2961C34.4872 36.692 34.1597 37.1458 33.7382 37.1458H24.738V43.3284C25.8693 43.3115 27.0038 43.193 28.1279 42.9707C32.7388 42.0585 36.8462 39.4635 39.6517 35.6899C42.0468 32.4683 43.347 28.5843 43.3949 24.604ZM15.3094 37.1458H24.2611V43.3296C20.9142 43.2953 17.6114 42.3736 14.7024 40.6254C10.6731 38.2038 7.68728 34.3697 6.32536 29.8681C5.80498 28.1481 5.53588 26.3775 5.51416 24.609H12.1746V27.5677C12.1293 29.6925 13.3183 30.1451 13.4493 30.1879V30.1964H14.0301V31.5684C14.0301 32.3234 14.4744 32.5339 14.6538 32.5876L14.5596 36.3025C14.5608 36.6932 14.8881 37.1458 15.3094 37.1458ZM12.1746 24.1318V20.8016C12.1269 18.5732 13.4052 18.161 13.4586 18.1443V18.1562H14.3741C14.3754 18.1393 14.3765 18.1297 14.377 18.1284L14.6925 13.1155C14.9111 10.4709 17.3109 10.0189 17.3407 10.0189H19.4036V10.0076H24.2611V5.42224C21.8393 5.44986 19.4443 5.93905 17.2043 6.86442C12.8621 8.6647 9.34379 12.0162 7.33322 16.2676C6.15999 18.7484 5.54906 21.4322 5.5143 24.1318H12.1746ZM11.1403 9.74606C14.7995 6.42659 19.5618 4.58777 24.5008 4.58726C27.114 4.58705 29.7016 5.10191 32.1158 6.10245C36.679 7.99363 40.376 11.5156 42.488 15.9834C44.5999 20.4512 44.9757 25.5453 43.5422 30.275C42.1088 35.0047 38.9686 39.0317 34.7324 41.5729C30.4963 44.1141 25.467 44.9877 20.6228 44.0239C15.7787 43.06 11.4659 40.3276 8.52344 36.358C5.58096 32.3885 4.21912 27.4656 4.70279 22.547C5.18646 17.6283 7.48107 13.0655 11.1403 9.74606ZM14.3694 18.3948H14.3574V29.9586H14.715L14.7398 19.952C14.4379 19.3459 14.3762 18.7332 14.3694 18.3948ZM34.6701 18.3944C34.6629 18.7304 34.6016 19.3405 34.2958 19.9455L34.3206 29.9594H34.6783V18.3944H34.6701ZM34.0584 20.3385C33.7873 20.7175 33.3979 21.0691 32.8398 21.319C32.4846 21.4784 32.1213 21.6262 31.7492 21.7624C32.2233 22.1015 33.4416 23.1211 33.2941 24.5401C33.1429 25.9916 31.6931 26.8554 31.3957 27.0187L31.3934 27.8298L34.0124 27.7655L33.6386 27.9967C33.5683 28.0419 31.8592 29.0971 31.0202 29.3246L31.0186 29.3197C30.24 29.6169 27.9956 30.3405 24.7276 30.3405H24.5208C21.1446 30.3724 18.8254 29.6268 18.0256 29.3243C17.1812 29.0961 15.4738 28.0419 15.4011 27.9965L15.0288 27.7655L17.6487 27.8299V27.0236C17.3507 26.8604 15.9015 25.9958 15.7517 24.545C15.6051 23.1446 16.7911 22.1333 17.2771 21.781C16.8939 21.6387 16.5202 21.4836 16.1552 21.3156C15.6184 21.0689 15.2415 20.7232 14.9773 20.35L14.9533 30.1968L14.7903 36.3053C14.7903 36.5745 15.0288 36.9068 15.3032 36.9068H21.4482C20.8123 36.6022 20.3119 36.0694 20.0145 35.6936L20.0036 35.7051L19.9889 35.7202C19.8894 35.8203 19.7711 35.8997 19.6409 35.9538C19.5107 36.008 19.371 36.036 19.2299 36.036H17.0269C16.7429 36.0358 16.4707 35.9228 16.2699 35.7218C16.0692 35.5207 15.9565 35.2482 15.9565 34.964V33.2478C15.9565 32.9635 16.0693 32.6909 16.2702 32.4898C16.4711 32.2888 16.7436 32.1758 17.0277 32.1758H18.3762C18.39 30.7218 17.4982 30.1126 17.3932 30.0467C17.3396 30.0235 17.2951 30.0032 17.259 29.9867L17.216 29.9671C16.8794 29.8099 16.553 29.6317 16.2387 29.4336L16.3579 29.2276L17.5017 29.8337C18.1054 30.0818 18.7294 30.2771 19.3668 30.4173C20.1294 30.5929 20.9015 30.7241 21.6793 30.8104C22.5413 30.9321 23.4097 31.0029 24.28 31.0224C25.2555 31.0299 26.2301 30.9642 27.1958 30.8257L27.1967 30.8256C28.3975 30.6722 29.4326 30.5399 30.7415 30.0862C31.0736 29.9669 31.402 29.8421 31.7245 29.7005L32.6434 29.2549L32.7516 29.4668C32.447 29.6301 32.1341 29.7814 31.8163 29.9206L31.5876 30.0314C31.5536 30.0519 30.5982 30.6456 30.6047 32.1435H32.0492C32.3332 32.1436 32.6057 32.2566 32.8065 32.4576C33.0074 32.6586 33.1203 32.9312 33.1204 33.2155V34.9269C33.1212 35.0682 33.0941 35.2083 33.0406 35.339C32.9872 35.4698 32.9084 35.5887 32.8088 35.6889C32.7093 35.789 32.5909 35.8685 32.4605 35.9228C32.3302 35.977 32.1904 36.0049 32.0492 36.0049H29.8461C29.7054 36.0049 29.5661 35.9772 29.4362 35.9233C29.3062 35.8695 29.1881 35.7905 29.0886 35.691C29.0765 35.6788 29.0646 35.6663 29.053 35.6535C28.7592 36.0307 28.2448 36.5915 27.5886 36.9072H33.7337C34.0087 36.9072 34.2455 36.5749 34.2467 36.3021L34.0834 30.1976L34.0584 20.3385ZM30.3744 32.1435H29.8461C29.562 32.1436 29.2896 32.2565 29.0888 32.4576C28.8879 32.6586 28.7751 32.9312 28.7751 33.2155V34.9329C28.775 35.0737 28.8027 35.2131 28.8565 35.3432C28.8727 35.3823 28.8911 35.4203 28.9117 35.457C28.5237 35.9635 27.659 36.9072 26.6047 36.9072L22.4479 36.907C21.4145 36.907 20.5632 35.9996 20.1647 35.4872C20.1857 35.4497 20.2044 35.4108 20.2208 35.3709C20.2743 35.2403 20.3016 35.1004 20.301 34.9593V33.2478C20.301 32.9635 20.1881 32.6909 19.9873 32.4899C19.7864 32.2889 19.514 32.1759 19.2299 32.1758H18.6207C18.6293 31.2534 18.2985 30.6397 17.9949 30.273C18.3222 30.3851 18.7567 30.515 19.3209 30.6472C20.0913 30.8248 20.8713 30.9576 21.6571 31.0449C22.5276 31.1688 23.4047 31.2403 24.2838 31.2592C25.2713 31.2668 26.258 31.2004 27.2355 31.0604C28.4473 30.9067 29.4944 30.7723 30.8276 30.3101L31.012 30.2433C30.708 30.6067 30.3705 31.2191 30.3744 32.1435ZM17.6306 22.4191L17.6184 22.4273C17.5659 22.4609 16.3399 23.267 16.4591 24.5046C16.5525 25.5203 17.4217 26.1369 17.6411 26.2777L17.6424 26.7399C17.2223 26.4814 16.1014 25.6956 15.9822 24.5128C15.8356 23.1002 17.2486 22.0737 17.5419 21.8767L17.6293 21.9072L17.6306 22.4191ZM17.8732 21.9895L17.8868 26.8584L18.1868 26.9658C18.2562 26.9898 18.3289 27.0156 18.4048 27.0424L18.4052 27.0426L18.4052 27.0426L18.4052 27.0426C18.7056 27.149 19.0546 27.2725 19.4317 27.3752C20.1997 27.5813 20.9795 27.7407 21.7667 27.8524C22.7255 27.9995 23.6952 28.0636 24.6651 28.0441H24.8483C25.6847 28.0435 26.52 27.9822 27.3476 27.8608C28.6476 27.6479 29.9236 27.3085 31.1576 26.8473L31.1715 21.9625C29.2167 22.601 27.0264 22.9376 24.5325 22.9863H24.4133H24.4033H24.3966L24.2491 22.9835C21.8582 22.9347 19.7544 22.608 17.8732 21.9895ZM31.5947 10.2553L29.6394 10.2547V15.0634C29.6394 15.1123 29.5726 19.6965 25.3248 21.4676C26.9101 21.4167 28.4873 21.2205 30.0368 20.8816C32.2688 20.3623 33.3873 19.4701 33.4953 19.384L33.5038 19.3773L33.6596 19.5563C33.6133 19.596 32.4884 20.5545 30.0892 21.113C28.1419 21.5668 26.1318 21.6811 25.176 21.7083H24.9833C24.8082 21.7201 24.6868 21.7201 24.6369 21.7201H23.8631C22.9109 21.6912 20.8973 21.5771 18.9501 21.1245C17.003 20.672 15.9043 19.9454 15.5125 19.6583L15.654 19.4678C16.0301 19.7462 17.1085 20.4395 19.0056 20.8816C20.5551 21.2206 22.1324 21.4167 23.7177 21.4676C19.4749 19.6965 19.4036 15.1117 19.4036 15.0634V10.2513L17.3721 10.2506C17.1913 10.285 15.1287 10.7278 14.9312 13.128L14.6144 18.1433C14.6053 18.2336 14.4324 20.2562 16.2546 21.0947C18.5516 22.1512 21.2057 22.6906 24.3703 22.7429H24.4121C27.6591 22.6906 30.3846 22.1476 32.7436 21.0947C34.6151 20.2618 34.4362 18.2363 34.4275 18.148L34.1026 13.1316C33.8997 10.7342 31.7769 10.2897 31.5947 10.2553ZM29.4037 10.2546L19.638 10.2513V15.0634C19.638 15.1123 19.7118 20.0003 24.4642 21.4878L24.5191 21.5043L24.5725 21.4878C29.3294 19.9953 29.4037 15.1117 29.4037 15.0622V10.2546ZM31.1595 27.8356L31.1618 27.1065C29.9362 27.5556 28.6706 27.8863 27.3822 28.0942C26.5424 28.2184 25.6947 28.2808 24.8459 28.2811H24.6627C23.6804 28.3031 22.698 28.2405 21.7264 28.0942C20.9299 27.9802 20.1409 27.8183 19.3638 27.6096C18.8869 27.4786 18.4473 27.3201 18.0986 27.1938L17.88 27.1153V27.8356L17.8852 27.8357L17.88 27.9279V29.0104L18.097 29.0983L18.0946 29.1062C18.8472 29.3919 21.0637 30.1107 24.307 30.1107H24.3738L24.6611 30.1019H24.7288C28.3827 30.1019 30.7322 29.1896 31.1558 29.0121L31.1593 27.899L31.1558 27.8357L31.1595 27.8356ZM15.6274 27.0266C15.7082 27.0927 15.8095 27.1287 15.9139 27.1285C16.0332 27.1281 16.1475 27.0806 16.2318 26.9962C16.3056 26.9224 16.3516 26.8251 16.3618 26.7212C16.372 26.6172 16.3458 26.5129 16.2877 26.4261C16.2297 26.3392 16.1433 26.2753 16.0434 26.245C15.9435 26.2148 15.8361 26.2202 15.7397 26.2603C15.6433 26.3004 15.5638 26.3727 15.5147 26.4649C15.4657 26.5571 15.4501 26.6635 15.4706 26.7659C15.4912 26.8684 15.5466 26.9605 15.6274 27.0266ZM15.7956 26.5012C15.8306 26.4777 15.8718 26.4652 15.9139 26.4651V26.4657C15.9418 26.4652 15.9695 26.4704 15.9954 26.4808C16.0212 26.4915 16.0447 26.5071 16.0645 26.5268C16.0842 26.5465 16.0999 26.5699 16.1108 26.5956C16.1214 26.6214 16.1269 26.6491 16.1269 26.6771C16.1271 26.7192 16.1148 26.7605 16.0915 26.7956C16.0683 26.8308 16.0351 26.8582 15.9963 26.8745C15.9574 26.8908 15.9146 26.8952 15.8733 26.8871C15.8319 26.879 15.7939 26.8588 15.764 26.8291C15.7342 26.7994 15.7138 26.7614 15.7055 26.7201C15.6972 26.6788 15.7013 26.6359 15.7173 26.597C15.7334 26.558 15.7606 26.5246 15.7956 26.5012ZM15.9437 22.4759C15.8393 22.4762 15.7381 22.4402 15.6573 22.374C15.5764 22.3079 15.521 22.2158 15.5004 22.1134C15.4799 22.011 15.4955 21.9046 15.5446 21.8124C15.5936 21.7201 15.6732 21.6478 15.7696 21.6077C15.866 21.5676 15.9733 21.5622 16.0732 21.5925C16.1732 21.6227 16.2595 21.6867 16.3176 21.7735C16.3756 21.8604 16.4018 21.9646 16.3916 22.0686C16.3814 22.1726 16.3355 22.2698 16.2617 22.3437C16.1773 22.428 16.063 22.4756 15.9437 22.4759ZM15.9437 21.8126C15.9016 21.8126 15.8604 21.8252 15.8255 21.8486C15.7905 21.8721 15.7632 21.9054 15.7472 21.9444C15.7311 21.9834 15.727 22.0262 15.7353 22.0676C15.7436 22.1089 15.764 22.1468 15.7939 22.1765C15.8238 22.2063 15.8618 22.2264 15.9031 22.2345C15.9444 22.2426 15.9873 22.2383 16.0261 22.222C16.065 22.2057 16.0981 22.1782 16.1214 22.1431C16.1446 22.108 16.157 22.0667 16.1568 22.0245C16.1567 21.9966 16.1513 21.9689 16.1407 21.943C16.1298 21.9173 16.114 21.894 16.0944 21.8742C16.0745 21.8546 16.051 21.839 16.0252 21.8283C15.9993 21.8178 15.9716 21.8127 15.9437 21.8132V21.8126ZM27.2029 19.3835C27.3865 19.1646 27.6874 18.6347 27.9317 18.1069C28.2519 17.5873 28.4524 16.9982 28.5129 16.3826C28.6043 15.4528 28.3706 14.52 27.8517 13.7433C27.3328 12.9666 26.5608 12.394 25.6673 12.1231C24.7737 11.8522 23.8139 11.8998 22.9515 12.2577C22.0891 12.6157 21.3774 13.2618 20.9378 14.086C20.4981 14.9103 20.3577 15.8616 20.5405 16.7778C20.597 17.061 20.6833 17.3355 20.7969 17.5971C21.0088 18.1261 21.4533 18.9857 21.9197 19.4879C22.2765 19.8943 22.7117 20.2244 23.1992 20.4584C23.615 20.6705 24.074 20.7842 24.5407 20.7907L24.5464 20.7935C24.9679 20.7886 25.3834 20.6937 25.7653 20.5151C26.57 20.1697 26.8681 19.7993 27.1066 19.5028L27.2029 19.3835ZM27.6529 18.1085C27.5262 18.2981 27.3835 18.4747 27.227 18.6368L26.9247 18.9176C26.537 19.2403 26.086 19.4849 25.5964 19.6332C25.3029 19.7221 25.0018 19.7745 24.6996 19.7908L24.0426 19.7691C23.7004 19.7279 23.363 19.64 23.0401 19.5059C22.5012 19.2821 22.0248 18.9387 21.6445 18.5061L21.111 17.719C20.7242 16.9583 20.6043 16.0888 20.7718 15.2505C20.9442 14.3881 21.41 13.6122 22.09 13.0551C22.77 12.498 23.6221 12.1941 24.5009 12.1952C24.999 12.1956 25.4921 12.2941 25.9521 12.4852C26.4121 12.6762 26.83 12.9561 27.1819 13.3088C27.8032 13.9307 28.1898 14.7491 28.2757 15.6243C28.3616 16.4996 28.1415 17.3775 27.6529 18.1085ZM31.4011 26.2849C31.6212 26.1438 32.4906 25.5273 32.5829 24.5118C32.6954 23.2684 31.4759 22.4681 31.4236 22.4347L31.4115 22.4266L31.4129 21.9006L31.494 21.871C31.7724 22.0567 33.2079 23.0881 33.0602 24.5114C32.9364 25.6952 31.8199 26.4812 31.3998 26.7385L31.4011 26.2849ZM32.8414 22.3947C32.9222 22.4608 33.0235 22.4968 33.1279 22.4965C33.2472 22.4964 33.3615 22.4488 33.4458 22.3643C33.5196 22.2904 33.5655 22.1932 33.5757 22.0892C33.5859 21.9853 33.5598 21.881 33.5017 21.7941C33.4436 21.7073 33.3573 21.6433 33.2573 21.6131C33.1574 21.5829 33.0501 21.5883 32.9537 21.6283C32.8573 21.6684 32.7778 21.7408 32.7287 21.833C32.6796 21.9252 32.664 22.0316 32.6846 22.134C32.7051 22.2364 32.7605 22.3285 32.8414 22.3947ZM33.0086 21.8684C33.044 21.8451 33.0855 21.8329 33.1279 21.8332L33.1275 21.8294C33.1701 21.8296 33.2117 21.8425 33.2468 21.8666C33.282 21.8908 33.3091 21.9249 33.3246 21.9646C33.3386 22.0005 33.3427 22.0395 33.3366 22.0776C33.3305 22.1156 33.3144 22.1514 33.2899 22.1811C33.2654 22.2108 33.2334 22.2335 33.1972 22.2467C33.1611 22.2599 33.122 22.2632 33.0841 22.2563C33.0427 22.2476 33.0048 22.2268 32.9751 22.1967C32.9528 22.1743 32.9358 22.1472 32.9253 22.1175C32.9148 22.0877 32.911 22.056 32.9142 22.0246C32.9174 21.9932 32.9276 21.9629 32.9439 21.9359C32.9602 21.9089 32.9823 21.8858 33.0086 21.8684ZM33.1279 27.1285C33.0235 27.1288 32.9222 27.0929 32.8413 27.0269C32.7604 26.9608 32.7049 26.8688 32.6843 26.7664C32.6636 26.664 32.6791 26.5576 32.7281 26.4653C32.7771 26.3731 32.8565 26.3007 32.9529 26.2605C33.0492 26.2203 33.1565 26.2148 33.2565 26.2449C33.3564 26.275 33.4429 26.3389 33.501 26.4256C33.5592 26.5124 33.5855 26.6166 33.5754 26.7206C33.5653 26.8246 33.5195 26.9219 33.4458 26.9958C33.3615 27.0803 33.2472 27.128 33.1279 27.1285ZM33.1279 26.4651C33.0855 26.4646 33.0439 26.4769 33.0085 26.5002C32.9731 26.5236 32.9454 26.557 32.9292 26.5962C32.9128 26.6351 32.9085 26.6781 32.9167 26.7196C32.9249 26.7611 32.9453 26.7992 32.9753 26.829C32.9976 26.8513 33.0246 26.8684 33.0544 26.879C33.0841 26.8896 33.1158 26.8935 33.1473 26.8903C33.1787 26.8871 33.209 26.877 33.236 26.8607C33.2631 26.8443 33.2861 26.8222 33.3035 26.7958C33.3306 26.7548 33.3428 26.7057 33.3378 26.6569C33.3329 26.608 33.3112 26.5623 33.2765 26.5276C33.237 26.4882 33.1836 26.466 33.1279 26.4657V26.4651ZM35.3644 29.959H34.9287V18.3944H35.3644V29.959ZM14.1195 29.959H13.6969L13.6837 18.3944H14.1195V29.959ZM35.6025 18.4086V29.9341C35.8632 29.8148 36.6735 29.2978 36.6391 27.5709V20.8016C36.666 19.0716 35.8738 18.5404 35.6025 18.4086ZM13.4481 29.9327C13.1864 29.8103 12.3745 29.2945 12.4114 27.5665V20.7992C12.3768 19.0508 13.1862 18.5233 13.4481 18.404V29.9327ZM7.30976 12.162L7.53131 11.817L4.3981 10.7017L4.15787 11.0467L6.38338 13.5468L6.60474 13.2028L5.95736 12.4708L6.38239 11.8204L7.30976 12.162ZM5.69188 12.162L4.92309 11.3086L6.01597 11.6945L5.69188 12.162ZM9.17016 9.86033L8.90707 10.1705L7.69377 9.11387L6.92517 10.0286L8.13808 11.0852L7.87499 11.3904L5.4309 9.27613L5.69279 8.97071L6.60684 9.76409L7.37544 8.84941L6.4602 8.05742L6.72329 7.75259L9.17016 9.86033ZM10.81 7.89352L10.7486 7.95476L8.24069 6.30813L7.93687 6.59308L9.35186 9.25917L9.29225 9.32042L9.79796 9.86008L10.1006 9.57633L9.87803 9.33593L10.809 8.4809L11.0311 8.7213L11.3397 8.44292L10.81 7.89352ZM9.65747 8.95017L8.58445 6.97526L10.4451 8.21942L9.65747 8.95017ZM11.294 6.31189L11.031 6.49463L11.7837 7.5308L11.4598 7.7712L9.55536 5.17252L9.87846 4.93211L10.1415 4.74938C10.3493 4.6121 10.6017 4.55984 10.8468 4.60337C11.0919 4.6469 11.311 4.7829 11.4588 4.98332C11.6066 5.18374 11.672 5.43329 11.6413 5.6805C11.6106 5.9277 11.4863 6.15371 11.294 6.31189ZM10.3788 5.06792L10.1205 5.25066L10.804 6.18582L11.0671 6.00309C11.1284 5.95772 11.1802 5.90085 11.2197 5.83566C11.289 5.72064 11.3163 5.58517 11.2969 5.45229C11.2776 5.31941 11.2129 5.19734 11.1138 5.10684C11.0146 5.01633 10.8872 4.963 10.7532 4.9559C10.6192 4.94881 10.4869 4.9884 10.3788 5.06792ZM32.9114 1.42925L32.7921 1.83668L32.0245 1.59628L31.1741 4.30055L30.791 4.18125L31.6392 1.47081L30.85 1.2304L30.9918 0.824167L32.1443 1.18487L32.9114 1.42925ZM33.6037 3.17877L33.9639 2.32374L35.0618 2.8113L35.2432 2.42555L33.8044 1.79561L33.7646 1.77573L32.4712 4.74387L32.5122 4.76375L33.9474 5.39369L34.1096 5.00793L32.9968 4.51977L33.4208 3.54384L34.4939 4.01133L34.6548 3.64486L33.6037 3.17877ZM37.3605 3.60968L36.2478 4.36092L36.3295 3.01952L35.9861 2.8165L35.8669 4.61941L34.3702 5.6363L34.7148 5.83952L35.8452 5.08829L35.7657 6.42969L36.1093 6.63271L36.2285 4.82979L37.7252 3.83557L37.3605 3.60968ZM39.0196 6.24707L39.7474 5.27095L40.0717 5.51174L38.1498 8.11421L37.8255 7.87381L38.796 6.57079L37.8448 5.85912L36.8741 7.15976L36.551 6.91936L38.4729 4.31669L38.7972 4.5571L38.0681 5.53302L39.0196 6.24707ZM41.9106 7.22305L39.4039 8.15822L41.0615 6.40939L40.7589 6.12564L38.5334 8.48293L38.8368 8.76867L41.3449 7.8341L39.6873 9.58393L39.9694 9.86231L42.1939 7.50521L41.9106 7.22305ZM42.0118 9.45887L43.6296 9.17393L43.9126 9.49924L42.0747 9.82495L41.4886 11.6344L41.2231 11.3085L41.7288 9.72314L41.6891 9.68337L40.6172 10.5768L40.3541 10.2523L42.8217 8.17753L43.0838 8.50443L41.9919 9.41911L42.0118 9.45887ZM44.8427 10.8411L41.689 11.9397L41.9114 12.2847L42.8216 11.959L43.2457 12.6104L42.5993 13.3461L42.8216 13.6921L45.0462 11.2125L44.8427 10.8411ZM43.5491 12.2835L43.2453 11.8158L44.3382 11.43L43.5491 12.2835ZM5.26044 15.577L5.11002 15.9548L3.98375 15.5027L3.53328 16.6106L4.65618 17.064L4.50575 17.4466L1.52972 16.2203L1.67398 15.8425L3.15753 16.444L3.6078 15.3372L2.12425 14.7339L2.27467 14.3508L5.26044 15.577ZM1.28588 16.9061L1.176 17.31L2.01434 17.7961L1.81563 18.5442L0.845348 18.5223L0.735463 18.9268L4.07195 18.9816L4.18203 18.5778L1.28588 16.9061ZM2.23967 18.5543L2.39367 18.0085L3.39813 18.5806L2.23967 18.5543ZM1.51964 20.9776L3.6923 20.5384L3.77735 20.1335L0.853178 20.6577L0.732563 20.6756H0.712693C0.687517 20.6751 0.678281 20.6671 0.665516 20.656C0.657627 20.6491 0.64839 20.6411 0.63321 20.633C0.55434 20.5788 0.491466 20.5044 0.451162 20.4176C0.410858 20.3308 0.394604 20.2347 0.404101 20.1395L0.000328921 20.0898C-0.00433109 20.2755 0.0405974 20.4591 0.130482 20.6217C0.224319 20.7694 0.353815 20.8911 0.507031 20.9756L0.526902 20.9965H0.546773C0.557846 20.9953 0.569035 20.9966 0.579559 21.0003C0.590072 21.0043 0.599621 21.0104 0.607577 21.0184L0.786413 21.1041L3.43259 22.4033L3.4777 21.9981L1.51964 20.9776ZM2.68285 23.1797L3.39025 23.1958L3.39899 22.81L2.6916 22.7941C2.43575 22.7901 2.18812 22.8845 1.99978 23.0579C1.81144 23.2312 1.69676 23.4703 1.67938 23.7257C1.66961 23.9306 1.72911 24.1327 1.84829 24.2996L0.109005 24.2383L0.079795 24.643L3.29348 24.7565L3.32309 24.3507L2.51495 24.3326C2.37862 24.3065 2.25688 24.2305 2.17343 24.1195C2.08998 24.0085 2.05079 23.8704 2.06349 23.7321C2.07596 23.578 2.14728 23.4346 2.26261 23.3318C2.37795 23.2289 2.52845 23.1744 2.68285 23.1797ZM2.27193 26.9917L3.46834 26.8984L3.49457 27.3057L0.272146 27.5779L0.241545 27.1707L1.84233 27.0446L1.74894 25.8631L0.148749 25.9885L0.116956 25.5821L3.34316 25.3093L3.37475 25.7163L2.17834 25.8096L2.27193 26.9917ZM3.84968 28.7971C3.79159 28.5208 3.62786 28.2782 3.39344 28.121C3.15903 27.9639 2.8725 27.9046 2.59505 27.956L1.41573 28.1946C1.14887 28.2612 0.918149 28.4286 0.771936 28.6618C0.625724 28.8949 0.575374 29.1756 0.631441 29.445C0.687509 29.7145 0.84564 29.9517 1.07268 30.1071C1.29973 30.2624 1.57805 30.3238 1.84931 30.2783L3.02863 30.0397C3.30018 29.9802 3.53787 29.8172 3.69119 29.5851C3.8445 29.3531 3.90136 29.0704 3.84968 28.7971ZM2.94001 29.6521L1.76207 29.8887C1.58659 29.9235 1.40447 29.8875 1.25541 29.7886C1.10634 29.6896 1.00241 29.5357 0.966257 29.3603C0.930104 29.185 0.964663 29.0025 1.0624 28.8526C1.16014 28.7026 1.31314 28.5974 1.48806 28.5599L2.66718 28.3213C2.84328 28.2851 3.02654 28.3203 3.17664 28.4193C3.32674 28.5183 3.43139 28.673 3.46757 28.8492C3.50375 29.0254 3.46849 29.2088 3.36956 29.359C3.27062 29.5092 3.1161 29.6139 2.94001 29.6501V29.6521ZM5.58145 34.6445L5.78393 34.5451L4.92651 32.7281L4.72403 32.8275L4.56129 32.9082L2.00671 34.1321L2.18555 34.5001L4.73794 33.2733L5.2347 34.3584L2.70397 35.5805L2.86294 35.9278L5.58145 34.6445ZM6.44466 35.6466L6.2843 35.3607L6.06453 35.0141L3.32237 36.723L3.54234 37.0707L4.63901 36.3877L4.79916 36.6725C4.86533 36.7814 4.95249 36.8761 5.05558 36.951C5.15867 37.026 5.27563 37.0796 5.39964 37.1089C5.52365 37.1381 5.65224 37.1424 5.77792 37.1215C5.9036 37.1005 6.02386 37.0547 6.13169 36.9868C6.34826 36.8486 6.50224 36.6312 6.56072 36.3809C6.6192 36.1306 6.57754 35.8674 6.44466 35.6474V35.6466ZM5.93199 36.6589C5.86663 36.6998 5.79383 36.7274 5.71779 36.7401C5.6418 36.7527 5.56407 36.7501 5.48906 36.7326C5.41404 36.7151 5.34322 36.683 5.28063 36.6381C5.21792 36.5931 5.1647 36.5362 5.12405 36.4706L4.96509 36.1849L5.96021 35.5617L6.1158 35.8477C6.19337 35.981 6.21757 36.1389 6.18354 36.2894C6.14951 36.4399 6.05978 36.572 5.93239 36.6589H5.93199ZM7.61257 37.3779C7.73476 37.4463 7.84216 37.5384 7.92853 37.6487H7.92734C8.09945 37.8736 8.17577 38.1575 8.13967 38.4385C8.10357 38.7195 7.95797 38.9748 7.73459 39.1488L6.80067 39.8951C6.69348 39.9822 6.56995 40.0471 6.43735 40.0858C6.30475 40.1245 6.16575 40.1363 6.02853 40.1205C5.89131 40.1047 5.75864 40.0615 5.63831 39.9937C5.51799 39.9258 5.41243 39.8345 5.32786 39.7253C5.24026 39.6154 5.17519 39.4894 5.13637 39.3544C5.09755 39.2193 5.08575 39.078 5.10165 38.9384C5.11754 38.7988 5.16082 38.6637 5.229 38.5409C5.29717 38.418 5.38891 38.3099 5.49894 38.2226L6.43286 37.4763C6.54204 37.3885 6.66754 37.3233 6.80209 37.2845C6.93664 37.2456 7.07756 37.2338 7.21669 37.2499C7.35581 37.2659 7.49038 37.3094 7.61257 37.3779ZM6.57971 39.5942L7.51562 38.848V38.8462C7.65061 38.7304 7.73674 38.5678 7.75666 38.3911C7.77657 38.2143 7.72878 38.0366 7.62292 37.8937C7.50882 37.7571 7.34651 37.6697 7.1697 37.6497C6.9929 37.6297 6.81519 37.6786 6.6735 37.7863L5.73759 38.5312C5.60159 38.6467 5.51476 38.8098 5.49482 38.9871C5.47488 39.1645 5.52333 39.3428 5.63029 39.4856C5.7441 39.6226 5.90635 39.7104 6.08323 39.7306C6.2601 39.7508 6.43794 39.702 6.57971 39.5942ZM10.035 40.0367L7.50546 40.9142L9.19864 39.1982L8.91708 38.9115L6.62897 41.2159L6.91054 41.5026L9.43888 40.6233L7.75285 42.3429L8.03323 42.6316L10.3142 40.3294L10.035 40.0367ZM10.5949 40.7571C10.9174 40.8408 11.4851 41.0875 11.7226 41.497L11.7228 41.4974C11.7818 41.5903 11.8176 41.696 11.8273 41.8056C11.8371 41.9153 11.8204 42.0256 11.7786 42.1275C11.7216 42.3449 11.5934 42.537 11.4146 42.6731C11.2685 42.78 11.0883 42.8295 10.9081 42.8123C10.9343 43.0278 10.8978 43.2464 10.803 43.4417C10.7045 43.6437 10.5487 43.8123 10.3551 43.9264C10.2621 43.9834 10.158 44.0198 10.0497 44.0332C9.9415 44.0466 9.83165 44.0366 9.72759 44.004C9.28288 43.8781 8.90236 43.3878 8.76326 43.0827L9.02715 42.7584C9.14677 43.0034 9.54796 43.5349 9.87165 43.6381C9.98712 43.6671 10.1092 43.6535 10.2154 43.5997C10.459 43.4593 10.623 43.1118 10.5435 42.871C10.5093 42.766 10.3726 42.6462 10.2329 42.5237L10.2328 42.5236L10.2327 42.5235C10.209 42.5027 10.1852 42.4818 10.1618 42.461C10.1426 42.4407 10.1226 42.4255 10.1024 42.4101L10.1023 42.41L10.1023 42.41L10.1023 42.41L10.1022 42.41L10.1022 42.41L10.1022 42.4099L10.1022 42.4099L10.1021 42.4099C10.0823 42.3948 10.0622 42.3795 10.0425 42.3591C10.0342 42.3509 10.0229 42.3427 10.0097 42.3331C9.98992 42.3188 9.96605 42.3015 9.94219 42.2766L9.90245 42.2567L10.1675 41.934L10.2285 41.9738C10.2601 41.995 10.2913 42.0218 10.3222 42.0483L10.3222 42.0484C10.3513 42.0733 10.3801 42.098 10.409 42.1179C10.4328 42.138 10.4555 42.1574 10.4773 42.1761C10.6358 42.3117 10.7461 42.4061 10.8874 42.4061C11.0091 42.4122 11.1291 42.375 11.2259 42.3011C11.3228 42.2271 11.3903 42.1211 11.4164 42.002C11.4351 41.9485 11.4413 41.8913 11.4344 41.835C11.4275 41.7787 11.4077 41.7247 11.3767 41.6773C11.2177 41.3922 10.5926 41.1235 10.3297 41.0808L10.5949 40.7571ZM13.2343 42.5023L12.8515 42.2594L12.5094 42.0333L10.8092 44.7867L11.5749 45.2593C11.6829 45.3278 11.8036 45.374 11.9297 45.3952C12.0559 45.4164 12.185 45.4121 12.3095 45.3827C12.434 45.3534 12.5514 45.2994 12.6548 45.224C12.7581 45.1486 12.8455 45.0533 12.9116 44.9437C12.9976 44.8083 13.0471 44.6528 13.0551 44.4924C13.0631 44.3321 13.0294 44.1724 12.9573 44.0291C13.0719 44.0079 13.1807 43.9625 13.2763 43.8957C13.3718 43.8289 13.452 43.7424 13.5112 43.6419C13.6194 43.4525 13.651 43.2289 13.5995 43.0169C13.548 42.805 13.4173 42.6208 13.2343 42.5023ZM12.5525 44.755C12.5141 44.8206 12.463 44.8778 12.4022 44.9233C12.3415 44.9688 12.2722 45.0017 12.1986 45.0201C12.1249 45.0385 12.0483 45.0421 11.9733 45.0305C11.8982 45.019 11.8262 44.9926 11.7614 44.9529L11.3416 44.6856L11.949 43.6932L12.3713 43.9607C12.4383 43.9982 12.4968 44.0494 12.5428 44.111C12.5888 44.1726 12.6214 44.2431 12.6384 44.3181C12.6555 44.3931 12.6566 44.4708 12.6417 44.5462C12.6269 44.6217 12.5963 44.6932 12.5521 44.756L12.5525 44.755ZM13.1619 43.4371C13.0991 43.5409 12.998 43.6158 12.8805 43.6455C12.7629 43.6753 12.6384 43.6576 12.5338 43.5962L12.1511 43.3532L12.621 42.5835L13.0038 42.8265C13.0569 42.8535 13.1037 42.8914 13.1412 42.9377C13.1788 42.984 13.2062 43.0377 13.2216 43.0952C13.2371 43.1528 13.2403 43.213 13.2311 43.2719C13.2218 43.3308 13.2003 43.3871 13.1679 43.4371H13.1619ZM15.0853 43.5792C15.2257 43.5855 15.3635 43.6195 15.4907 43.6794C16.0161 43.924 16.2331 44.5561 16.0071 45.1266L15.4941 46.2203C15.3711 46.4772 15.1512 46.6747 14.8827 46.7694C14.6142 46.8641 14.3191 46.8482 14.0624 46.7251C13.8056 46.6021 13.6082 46.382 13.5136 46.1134C13.419 45.8447 13.4349 45.5494 13.5579 45.2925L14.0709 44.1988C14.1295 44.071 14.2129 43.956 14.3161 43.8606C14.4194 43.7651 14.5405 43.6911 14.6726 43.6428C14.8046 43.5945 14.9449 43.5729 15.0853 43.5792ZM15.111 46.0147L15.624 44.921L15.6238 44.922C15.6746 44.8206 15.6995 44.7082 15.6961 44.5949C15.6927 44.4815 15.6612 44.3708 15.6044 44.2726C15.5476 44.1745 15.4673 44.092 15.3707 44.0326C15.2741 43.9733 15.1643 43.9389 15.0511 43.9326C14.9608 43.9276 14.8704 43.9406 14.7852 43.9708C14.6999 44.001 14.6214 44.0478 14.5544 44.1086C14.4873 44.1693 14.4329 44.2428 14.3944 44.3247L13.8814 45.4183C13.8202 45.5403 13.7969 45.6777 13.8145 45.813C13.832 45.9483 13.8895 46.0752 13.9797 46.1775C14.0397 46.2453 14.1124 46.3006 14.1938 46.3401C14.2753 46.3797 14.3637 46.4026 14.454 46.4078C14.5444 46.4127 14.6349 46.3998 14.7203 46.3698C14.8056 46.3394 14.8841 46.2923 14.9511 46.2314C15.0182 46.1704 15.0725 46.0967 15.111 46.0147ZM18.0311 44.7513L17.6283 44.6282L16.0089 47.1559L15.9274 47.1147L15.7005 47.8246L16.084 47.9475L16.1871 47.6226L17.3772 48.0175L17.2742 48.3412L17.6577 48.4641L17.8839 47.754L17.8044 47.7329L18.0311 44.7513ZM17.4256 47.6128L16.4164 47.2814L17.6027 45.3985L17.4256 47.6128ZM19.2061 47.4213C19.1441 47.7106 19.3848 48.0127 19.7075 48.0751L19.7063 48.0761C19.82 48.1061 19.9403 48.0992 20.0499 48.0563C20.1594 48.0134 20.2525 47.9368 20.3157 47.8375L20.7201 47.9206C20.7201 47.9306 20.7151 47.9355 20.7101 47.9405C20.7052 47.9455 20.7002 47.9505 20.7002 47.9604C20.6053 48.1495 20.4501 48.3015 20.2591 48.3923C20.0681 48.4831 19.8523 48.5075 19.6459 48.4617C19.4285 48.4275 19.2283 48.323 19.076 48.1641C18.9237 48.0052 18.8276 47.8007 18.8025 47.582C18.8006 47.5069 18.8079 47.4319 18.8244 47.3587L19.1159 45.9976C19.1462 45.8552 19.2102 45.7222 19.3025 45.6097C19.3948 45.4971 19.5128 45.4084 19.6465 45.351C19.8563 45.2871 20.0783 45.2744 20.294 45.3142C20.5129 45.3631 20.7146 45.47 20.878 45.6236C21.0599 45.787 21.0982 45.9952 21.0966 46.2356L20.6922 46.1511C20.6731 46.0325 20.6189 45.9223 20.5366 45.8348C20.4544 45.7472 20.3478 45.6864 20.2306 45.66C19.9079 45.5965 19.5632 45.7771 19.5 46.0614L19.2061 47.4213ZM23.7483 45.7439L23.7259 46.171L22.9168 46.1042L22.6755 48.9079L22.2721 48.8847L22.5136 46.0611L21.7042 45.9941L21.7275 45.588L22.5366 45.6546L22.94 45.6779L23.7483 45.7439ZM25.8241 46.8698C25.7821 46.9776 25.7192 47.0761 25.6389 47.1594H25.6365C25.8138 47.2699 25.9509 47.4343 26.0279 47.6285C26.1049 47.8227 26.1177 48.0365 26.0643 48.2385C26.011 48.4405 25.8943 48.62 25.7315 48.7508C25.5687 48.8816 25.3683 48.9567 25.1597 48.9651L24.249 48.9999L24.1695 45.7671L24.5745 45.7494L25.0394 45.7321C25.1474 45.7287 25.255 45.7466 25.3559 45.785C25.4569 45.8233 25.5493 45.8813 25.6278 45.9556C25.7062 46.0299 25.7692 46.119 25.8131 46.2178C25.8569 46.3165 25.8808 46.423 25.8833 46.5311C25.8862 46.6468 25.866 46.7619 25.8241 46.8698ZM25.0394 46.0986L24.5745 46.1161L24.6092 47.0107L25.0744 46.9934C25.1917 46.987 25.3017 46.9346 25.3808 46.8477C25.4599 46.7608 25.5016 46.6462 25.497 46.5288C25.4924 46.4113 25.4419 46.3004 25.3563 46.2199C25.2707 46.1394 25.1569 46.0959 25.0394 46.0986ZM24.6382 48.5963L25.1442 48.5792C25.2202 48.577 25.2951 48.5598 25.3645 48.5287C25.4339 48.4976 25.4965 48.4531 25.5487 48.3977C25.601 48.3424 25.6418 48.2773 25.6689 48.2061C25.696 48.135 25.7088 48.0592 25.7066 47.9831C25.7044 47.9071 25.6873 47.8321 25.6562 47.7627C25.6251 47.6932 25.5806 47.6306 25.5253 47.5783C25.47 47.526 25.4049 47.4852 25.3338 47.4581C25.2627 47.431 25.187 47.4181 25.111 47.4203L24.6063 47.4372L24.6382 48.5963ZM28.6226 48.6437L27.4287 48.798L27.0236 48.8564L26.5803 45.6417H26.6399L27.0009 45.582L28.1753 45.4276L28.2327 45.8344L27.0387 46.0088L27.1742 46.9246L28.3116 46.7699L28.369 47.1766L27.2352 47.3325L27.3697 48.3899L28.5652 48.2153L28.6226 48.6437ZM30.2656 44.9342L30.6709 44.8362L31.463 48.0113L31.0572 48.1107L30.6642 46.5454L29.5093 46.8224L29.9035 48.3877L29.4979 48.4871L28.7109 45.3313L29.1152 45.2318L29.4063 46.3925L30.5602 46.1155L30.2656 44.9342ZM33.0419 43.9578L32.6564 44.097L33.0737 45.2176L31.9788 45.6368L31.5615 44.5161L31.1762 44.6567L32.3287 47.6925L32.7138 47.5533L32.1376 46.0456L33.2337 45.6251L33.8099 47.1339L34.1954 46.9947L33.0419 43.9578ZM35.7948 43.6711L36.3533 44.7314V44.7298C36.4719 44.9788 36.4893 45.2641 36.4018 45.5257C36.3144 45.7873 36.1289 46.0048 35.8845 46.1323C35.64 46.2598 35.3557 46.2874 35.0913 46.2093C34.8269 46.1312 34.6031 45.9535 34.467 45.7136L33.907 44.6532C33.7804 44.4012 33.7571 44.1097 33.8422 43.8408C33.9273 43.5719 34.114 43.3469 34.3625 43.2138C34.4861 43.1475 34.6217 43.1068 34.7613 43.0939C34.901 43.0811 35.0417 43.0965 35.1753 43.1392C35.3089 43.1818 35.4326 43.2509 35.539 43.3423C35.6454 43.4336 35.7323 43.5455 35.7948 43.6711ZM35.4649 45.8994C35.5532 45.8918 35.6391 45.8665 35.7175 45.825H35.7165C35.8756 45.7421 35.9954 45.5996 36.0497 45.4285C36.104 45.2575 36.0883 45.0718 36.0062 44.9123L35.4476 43.8509C35.4093 43.77 35.3549 43.6978 35.2876 43.6389C35.2203 43.5799 35.1416 43.5354 35.0565 43.5081C34.9713 43.4808 34.8814 43.4713 34.7924 43.4802C34.7034 43.4891 34.6172 43.5162 34.5391 43.5598C34.4201 43.6214 34.322 43.717 34.2573 43.8345C34.1927 43.952 34.1643 44.0861 34.1759 44.2197C34.1835 44.3084 34.2084 44.3947 34.2494 44.4736L34.8092 45.5341C34.8693 45.6537 34.964 45.7524 35.0809 45.8176C35.1978 45.8827 35.3316 45.9112 35.4649 45.8994ZM38.9453 44.2213L37.9293 44.9056L37.6445 45.1068L37.6032 45.1476L35.7811 42.4715L35.8427 42.4318L36.1262 42.2307L37.1217 41.5461L37.3602 41.8939L36.3637 42.5777L36.8849 43.3323L37.8188 42.6885L38.0573 43.036L37.1035 43.6801L37.7042 44.5578L38.6997 43.8939L38.9453 44.2213ZM41.2797 39.2203L42.131 40.0524H42.1358C42.3332 40.249 42.4451 40.5156 42.4472 40.7942C42.4492 41.0729 42.3412 41.3411 42.1467 41.5406C41.9522 41.74 41.6868 41.8545 41.4083 41.8591C41.1299 41.8638 40.8609 41.7582 40.6598 41.5654L39.8087 40.7321C39.6061 40.5359 39.4896 40.2673 39.4846 39.9852C39.4797 39.7031 39.5868 39.4306 39.7825 39.2274C39.8799 39.1279 39.9962 39.0487 40.1244 38.9945C40.2526 38.9402 40.3904 38.9119 40.5296 38.9112C40.6688 38.9106 40.8068 38.9375 40.9356 38.9906C41.0644 39.0436 41.1813 39.1217 41.2797 39.2203ZM41.6475 41.4381C41.7285 41.4024 41.8016 41.3511 41.8627 41.2871L41.8603 41.2918C41.9222 41.2272 41.9707 41.151 42.0031 41.0676C42.0354 40.9841 42.0509 40.8951 42.0486 40.8056C42.0464 40.7161 42.0265 40.628 41.99 40.5463C41.9536 40.4646 41.9013 40.3909 41.8363 40.3294L40.9924 39.4989C40.8618 39.3791 40.6901 39.3143 40.513 39.318C40.3359 39.3217 40.167 39.3936 40.0416 39.5187C39.9183 39.6481 39.851 39.8209 39.8543 39.9997C39.8577 40.1784 39.9315 40.3486 40.0597 40.4732L40.9107 41.3069C40.9744 41.3684 41.0497 41.4166 41.1321 41.4489C41.2145 41.4811 41.3024 41.4968 41.3909 41.4949C41.4793 41.4931 41.5665 41.4738 41.6475 41.4381ZM43.6689 38.1776C43.5684 38.0994 43.4535 38.0419 43.3307 38.0082C43.208 37.9746 43.0798 37.9655 42.9535 37.9816C42.8272 37.9976 42.7053 38.0384 42.5948 38.1017C42.4843 38.1649 42.3874 38.2494 42.3096 38.3502L42.1019 38.6101L41.4065 38.0652L42.1564 37.1058L41.8375 36.858L40.8582 38.1378L43.4033 40.102L43.6507 39.7838L43.8392 39.5236C43.9174 39.4244 43.975 39.3107 44.0088 39.1891C44.0425 39.0675 44.0518 38.9403 44.0359 38.8151C44.0201 38.6898 43.9795 38.569 43.9164 38.4596C43.8534 38.3502 43.7693 38.2545 43.6689 38.178V38.1776ZM43.5428 39.2929L43.3351 39.5528L42.4201 38.8407L42.6084 38.5804C42.6533 38.5182 42.7105 38.4659 42.7764 38.4268C42.8424 38.3876 42.9157 38.3625 42.9918 38.3529C43.0678 38.3434 43.1451 38.3496 43.2186 38.3712C43.2922 38.3929 43.3605 38.4294 43.4194 38.4786C43.4821 38.5232 43.5352 38.5799 43.5755 38.6455C43.6158 38.7111 43.6425 38.7841 43.6539 38.8602C43.6653 38.9364 43.6612 39.014 43.6419 39.0885C43.6226 39.163 43.5885 39.2329 43.5416 39.2939L43.5428 39.2929ZM44.9729 35.362C45.0984 35.3804 45.219 35.4234 45.3278 35.4886V35.488C45.5482 35.6202 45.7073 35.8345 45.7701 36.0839C45.8329 36.3333 45.7943 36.5974 45.6628 36.8183L45.4943 37.0981L45.2836 37.4397L42.8692 35.982L42.4495 36.6845L42.1095 36.4735L42.7398 35.4296L43.8371 36.1057L44.0058 35.8255C44.0701 35.7161 44.1555 35.6206 44.2569 35.5444C44.3583 35.4683 44.4738 35.4129 44.5967 35.3816C44.7196 35.3503 44.8474 35.3436 44.9729 35.362ZM45.1742 36.909L45.3429 36.6276C45.3836 36.562 45.4109 36.4888 45.4231 36.4124C45.4352 36.3361 45.432 36.2581 45.4136 36.183C45.3952 36.1079 45.3621 36.0372 45.316 35.9751C45.27 35.9131 45.212 35.8608 45.1455 35.8214C45.079 35.7821 45.0053 35.7564 44.9288 35.7459C44.8522 35.7354 44.7744 35.7403 44.6997 35.7603C44.6251 35.7804 44.5552 35.8151 44.4942 35.8625C44.4332 35.9099 44.3822 35.9691 44.3444 36.0365L44.177 36.3176L45.1742 36.909ZM47.2091 33.6808L46.7192 34.7889L46.5917 35.1106L46.5519 35.1504L43.628 33.8434L43.6478 33.7838L43.7969 33.4614L44.2867 32.3543L44.6674 32.5251L44.1619 33.6318L45.0235 33.9977L45.4724 32.9496L45.8531 33.1218L45.3831 34.1934L46.3646 34.6219L46.8546 33.5147L47.2091 33.6808ZM47.8389 30.8901L47.8612 30.8088L48.5797 31.0305L48.451 31.4146L48.1289 31.3053L47.7412 32.5166L48.0631 32.625L47.9345 33.0092L47.2305 32.7891L47.2528 32.7095L44.7193 31.1058L44.8484 30.7024L47.8389 30.8901ZM45.4857 31.1412L47.3813 32.3224L47.7074 31.2933L45.4857 31.1412ZM48.7525 28.043L45.5909 27.4294L45.5206 27.834L47.6467 29.4679L45.2901 29.0084L45.2197 29.413L48.3825 30.034L48.4517 29.628L46.3255 27.9941L48.681 28.454L48.7525 28.043ZM49 25.1207L48.9715 25.5265L47.3751 25.41L47.2885 26.5862L48.8839 26.7041L48.8541 27.1097L45.6432 26.8749L45.6728 26.4692L46.8639 26.5573L46.9517 25.38L45.7606 25.2917L45.7891 24.8859L49 25.1207ZM48.9816 24.2056L45.7824 24.3366L45.7838 24.2754L45.7506 23.9294L45.7182 22.7083L46.1222 22.697L46.1766 23.9006L47.0867 23.8807L47.0527 22.7208L47.4567 22.7097L47.5123 23.8697L48.5655 23.8131L48.5122 22.6095L48.9365 22.5985L48.9707 23.8017L48.9834 24.1471L48.9816 24.2056ZM47.201 21.5225L48.8046 21.274L48.8582 21.6818L45.6718 22.159L45.6199 21.7502L46.8157 21.574L46.6389 20.3917L45.4421 20.5689L45.3898 20.1603L48.5773 19.683L48.6281 20.0905L47.0248 20.3392L47.201 21.5225ZM48.2417 18.4143L45.6035 17.9072L47.9246 17.2684L47.8133 16.88L44.6988 17.745L44.8087 18.1341L47.4465 18.641L45.1266 19.2793L45.2381 19.6676L48.3526 18.8026L48.2417 18.4143ZM44.5259 17.2112L47.5065 16.0181L47.4922 15.9547L47.3579 15.6258L46.9186 14.4978L46.5305 14.6513L46.9855 15.7797L45.9856 16.1647L45.5654 15.0973L45.1773 15.2508L45.5986 16.3418L44.761 16.6681L44.3054 15.56L43.9173 15.7137L44.3729 16.8216L44.5061 17.1698L44.5259 17.2112ZM3.1691 32.4582L2.82579 31.2632L2.44251 31.3735L2.78582 32.5685L3.1691 32.4582ZM22.9951 17.7823C23.4327 18.1412 23.9811 18.3372 24.5469 18.3368C25.195 18.3365 25.8164 18.0786 26.2744 17.6199C26.6744 17.2195 26.9234 16.6927 26.9787 16.1293C27.0341 15.5658 26.8925 15.0005 26.578 14.5299C26.2636 14.0592 25.7957 13.7122 25.2543 13.548C24.7128 13.3838 24.1312 13.4126 23.6085 13.6295C23.0859 13.8464 22.6546 14.2379 22.3881 14.7374C22.1216 15.2368 22.0365 15.8133 22.1472 16.3685C22.2579 16.9238 22.5575 17.4234 22.9951 17.7823ZM23.0854 14.1117C23.4977 13.7739 24.0142 13.5897 24.5469 13.5904C24.8489 13.5906 25.1478 13.6503 25.4266 13.7661C25.7055 13.882 25.9588 14.0516 26.1721 14.2654C26.5488 14.6425 26.7831 15.1385 26.8352 15.6691C26.8873 16.1997 26.7539 16.7319 26.4577 17.1751C26.1615 17.6182 25.7209 17.9449 25.211 18.0993C24.7011 18.2538 24.1534 18.2265 23.6614 18.0221C23.1693 17.8178 22.7633 17.4489 22.5126 16.9785C22.2618 16.5082 22.1819 15.9653 22.2863 15.4425C22.3908 14.9197 22.6732 14.4494 23.0854 14.1117Z" fill="white"/>
<path d="M58.5601 27.998V22.9873H59.2231V25.0449H61.8276V22.9873H62.4907V27.998H61.8276V25.6362H59.2231V27.998H58.5601Z" fill="white"/>
<path d="M63.4329 27.998L65.3572 22.9873H66.0715L68.1223 27.998H67.3669L66.7825 26.4805H64.6872L64.137 27.998H63.4329ZM64.8787 25.9404H66.5774L66.0544 24.5527C65.8949 24.1312 65.7764 23.7848 65.699 23.5137C65.6352 23.835 65.5452 24.154 65.4289 24.4707L64.8787 25.9404Z" fill="white"/>
<path d="M68.2236 22.9873H68.8935L70.5273 26.0566L71.956 22.9873H72.6157L70.7358 26.8838C70.5011 27.3714 70.3086 27.6904 70.1582 27.8408C70.0078 27.9912 69.7925 28.0664 69.5122 28.0664C69.3413 28.0664 69.1317 28.0265 68.8833 27.9468V27.3794C69.061 27.4819 69.249 27.5332 69.4472 27.5332C69.609 27.5332 69.748 27.4819 69.8642 27.3794C69.9827 27.2746 70.1126 27.0376 70.2539 26.6685L68.2236 22.9873Z" fill="white"/>
<path d="M77.1399 27.998H76.4768V25.978C75.882 26.1991 75.3614 26.3096 74.9148 26.3096C74.5661 26.3096 74.2585 26.2287 73.9919 26.0669C73.7253 25.9028 73.5464 25.6955 73.4553 25.4448C73.3664 25.1942 73.322 24.866 73.322 24.4604V22.9873H73.9851V24.3989C73.9851 24.9458 74.0842 25.3058 74.2824 25.479C74.483 25.6499 74.7234 25.7354 75.0036 25.7354C75.4708 25.7354 75.9618 25.6317 76.4768 25.4243V22.9873H77.1399V27.998Z" fill="white"/>
<path d="M78.6391 27.998V22.9873H79.3022V25.0449H81.9067V22.9873H82.5698V27.998H81.9067V25.6362H79.3022V27.998H78.6391Z" fill="white"/>
<path d="M83.8605 25.5576C83.8605 24.7259 84.0839 24.0754 84.5305 23.606C84.9771 23.1343 85.5536 22.8984 86.26 22.8984C86.7225 22.8984 87.1395 23.009 87.5109 23.23C87.8824 23.451 88.1649 23.7598 88.3586 24.1562C88.5546 24.5505 88.6525 24.9982 88.6525 25.4995C88.6525 26.0076 88.55 26.4622 88.3449 26.8633C88.1398 27.2643 87.8493 27.5685 87.4733 27.7759C87.0974 27.981 86.6918 28.0835 86.2565 28.0835C85.7849 28.0835 85.3633 27.9696 84.9919 27.7417C84.6205 27.5138 84.3391 27.2028 84.1477 26.8086C83.9562 26.4144 83.8605 25.9974 83.8605 25.5576ZM84.5441 25.5679C84.5441 26.1717 84.7059 26.6479 85.0295 26.9966C85.3553 27.3429 85.7632 27.5161 86.2531 27.5161C86.7521 27.5161 87.1623 27.3407 87.4836 26.9897C87.8072 26.6388 87.9689 26.141 87.9689 25.4961C87.9689 25.0882 87.8994 24.7327 87.7604 24.4297C87.6237 24.1243 87.4221 23.8885 87.1555 23.7222C86.8911 23.5535 86.5938 23.4692 86.2634 23.4692C85.794 23.4692 85.3895 23.631 85.05 23.9546C84.7128 24.2759 84.5441 24.8136 84.5441 25.5679Z" fill="white"/>
<path d="M89.5776 26.4941V25.8755H91.4677V26.4941H89.5776Z" fill="white"/>
<path d="M92.6183 22.9873H96.5593V27.998H95.8928V23.5786H93.2814V27.998H92.6183V22.9873Z" fill="white"/>
<path d="M98.0278 27.998V22.9873H99.9179C100.251 22.9873 100.505 23.0033 100.68 23.0352C100.926 23.0762 101.132 23.1548 101.299 23.271C101.465 23.3849 101.598 23.5456 101.699 23.7529C101.801 23.9603 101.852 24.1882 101.852 24.4365C101.852 24.8626 101.717 25.2238 101.446 25.52C101.175 25.814 100.685 25.9609 99.976 25.9609H98.6908V27.998H98.0278ZM98.6908 25.3696H99.9863C100.415 25.3696 100.719 25.2899 100.899 25.1304C101.079 24.9709 101.169 24.7464 101.169 24.457C101.169 24.2474 101.115 24.0685 101.008 23.9204C100.903 23.77 100.764 23.6709 100.591 23.623C100.48 23.5934 100.273 23.5786 99.9726 23.5786H98.6908V25.3696Z" fill="white"/>
<path d="M102.723 25.5576C102.723 24.7259 102.946 24.0754 103.393 23.606C103.839 23.1343 104.416 22.8984 105.122 22.8984C105.585 22.8984 106.002 23.009 106.373 23.23C106.745 23.451 107.027 23.7598 107.221 24.1562C107.417 24.5505 107.515 24.9982 107.515 25.4995C107.515 26.0076 107.412 26.4622 107.207 26.8633C107.002 27.2643 106.712 27.5685 106.336 27.7759C105.96 27.981 105.554 28.0835 105.119 28.0835C104.647 28.0835 104.226 27.9696 103.854 27.7417C103.483 27.5138 103.201 27.2028 103.01 26.8086C102.819 26.4144 102.723 25.9974 102.723 25.5576ZM103.406 25.5679C103.406 26.1717 103.568 26.6479 103.892 26.9966C104.218 27.3429 104.625 27.5161 105.115 27.5161C105.614 27.5161 106.025 27.3407 106.346 26.9897C106.669 26.6388 106.831 26.141 106.831 25.4961C106.831 25.0882 106.762 24.7327 106.623 24.4297C106.486 24.1243 106.284 23.8885 106.018 23.7222C105.753 23.5535 105.456 23.4692 105.126 23.4692C104.656 23.4692 104.252 23.631 103.912 23.9546C103.575 24.2759 103.406 24.8136 103.406 25.5679Z" fill="white"/>
<path d="M108.768 22.9873H109.37V26.9556L112.036 22.9873H112.702V27.998H112.1V24.04L109.431 27.998H108.768V22.9873Z" fill="white"/>
<path d="M113.901 26.583L114.533 26.4189C114.581 26.6628 114.708 26.9066 114.916 27.1504C115.125 27.3942 115.402 27.5161 115.746 27.5161C116.097 27.5161 116.374 27.4261 116.577 27.2461C116.78 27.0661 116.881 26.8485 116.881 26.5933C116.881 26.3175 116.774 26.0988 116.56 25.937C116.346 25.7729 116.054 25.6909 115.685 25.6909H115.367V25.1133C115.672 25.1133 115.906 25.0962 116.068 25.062C116.229 25.0256 116.372 24.9355 116.495 24.792C116.62 24.6462 116.683 24.481 116.683 24.2964C116.683 24.0776 116.597 23.8874 116.426 23.7256C116.258 23.5638 116.029 23.4829 115.739 23.4829C115.486 23.4829 115.27 23.5467 115.09 23.6743C114.912 23.7996 114.789 23.9671 114.721 24.1768C114.652 24.3841 114.618 24.5391 114.618 24.6416L113.983 24.498C114.14 23.4339 114.728 22.9019 115.746 22.9019C116.236 22.9019 116.625 23.0386 116.912 23.312C117.199 23.5832 117.342 23.901 117.342 24.2656C117.342 24.7327 117.121 25.0951 116.679 25.3525C116.935 25.4232 117.148 25.5679 117.318 25.7866C117.492 26.0031 117.578 26.2629 117.578 26.5659C117.578 26.9966 117.411 27.3577 117.076 27.6494C116.743 27.9388 116.301 28.0835 115.75 28.0835C114.802 28.0835 114.185 27.5833 113.901 26.583Z" fill="white"/>
<path d="M118.763 27.998V22.9873H120.643C121.026 22.9873 121.332 23.0386 121.562 23.1411C121.795 23.2414 121.976 23.3975 122.106 23.6094C122.238 23.819 122.304 24.0389 122.304 24.269C122.304 24.4832 122.246 24.6849 122.13 24.874C122.014 25.0632 121.838 25.2158 121.603 25.332C121.906 25.4209 122.139 25.5724 122.301 25.7866C122.465 26.0008 122.547 26.2537 122.547 26.5454C122.547 26.7801 122.497 26.9989 122.396 27.2017C122.298 27.4022 122.176 27.5571 122.031 27.6665C121.885 27.7759 121.701 27.859 121.48 27.916C121.262 27.9707 120.993 27.998 120.674 27.998H118.763ZM119.426 25.0928H120.51C120.804 25.0928 121.014 25.0734 121.142 25.0347C121.311 24.9845 121.437 24.9014 121.521 24.7852C121.608 24.6689 121.651 24.5231 121.651 24.3477C121.651 24.1813 121.611 24.0355 121.532 23.9102C121.452 23.7826 121.338 23.696 121.19 23.6504C121.042 23.6025 120.788 23.5786 120.428 23.5786H119.426V25.0928ZM119.426 27.4067H120.674C120.888 27.4067 121.038 27.3988 121.125 27.3828C121.278 27.3555 121.405 27.3099 121.508 27.2461C121.61 27.1823 121.695 27.09 121.761 26.9692C121.827 26.8462 121.86 26.7049 121.86 26.5454C121.86 26.3586 121.812 26.1968 121.716 26.0601C121.62 25.9211 121.487 25.8242 121.316 25.7695C121.148 25.7126 120.904 25.6841 120.585 25.6841H119.426V27.4067Z" fill="white"/>
<path d="M123.41 25.5576C123.41 24.7259 123.634 24.0754 124.08 23.606C124.527 23.1343 125.103 22.8984 125.81 22.8984C126.272 22.8984 126.689 23.009 127.061 23.23C127.432 23.451 127.715 23.7598 127.908 24.1562C128.104 24.5505 128.202 24.9982 128.202 25.4995C128.202 26.0076 128.1 26.4622 127.895 26.8633C127.69 27.2643 127.399 27.5685 127.023 27.7759C126.647 27.981 126.241 28.0835 125.806 28.0835C125.335 28.0835 124.913 27.9696 124.542 27.7417C124.17 27.5138 123.889 27.2028 123.697 26.8086C123.506 26.4144 123.41 25.9974 123.41 25.5576ZM124.094 25.5679C124.094 26.1717 124.256 26.6479 124.579 26.9966C124.905 27.3429 125.313 27.5161 125.803 27.5161C126.302 27.5161 126.712 27.3407 127.033 26.9897C127.357 26.6388 127.519 26.141 127.519 25.4961C127.519 25.0882 127.449 24.7327 127.31 24.4297C127.173 24.1243 126.972 23.8885 126.705 23.7222C126.441 23.5535 126.144 23.4692 125.813 23.4692C125.344 23.4692 124.939 23.631 124.6 23.9546C124.262 24.2759 124.094 24.8136 124.094 25.5679Z" fill="white"/>
<path d="M129.743 22.9873H132.791V27.4067H133.243V29.167H132.651V27.998H129.339V29.167H128.748V27.4067H129.138C129.541 26.7983 129.743 25.569 129.743 23.7188V22.9873ZM132.128 23.5786H130.382V23.835C130.382 24.2611 130.343 24.8444 130.265 25.585C130.19 26.3232 130.041 26.9305 129.818 27.4067H132.128V23.5786Z" fill="white"/>
<path d="M137.992 26.2412L138.655 26.4087C138.516 26.9533 138.266 27.3691 137.903 27.6562C137.543 27.9411 137.102 28.0835 136.581 28.0835C136.041 28.0835 135.601 27.9741 135.261 27.7554C134.924 27.5343 134.667 27.2153 134.489 26.7983C134.313 26.3813 134.226 25.9336 134.226 25.4551C134.226 24.9333 134.325 24.4787 134.523 24.0913C134.724 23.7017 135.007 23.4066 135.374 23.2061C135.743 23.0033 136.149 22.9019 136.591 22.9019C137.092 22.9019 137.514 23.0295 137.856 23.2847C138.197 23.5399 138.435 23.8988 138.57 24.3613L137.917 24.5151C137.801 24.1506 137.632 23.8851 137.411 23.7188C137.19 23.5524 136.912 23.4692 136.577 23.4692C136.192 23.4692 135.87 23.5615 135.61 23.7461C135.352 23.9307 135.171 24.179 135.067 24.4912C134.962 24.8011 134.909 25.1213 134.909 25.4517C134.909 25.8778 134.971 26.2503 135.094 26.5693C135.219 26.8861 135.413 27.123 135.675 27.2803C135.937 27.4375 136.221 27.5161 136.526 27.5161C136.897 27.5161 137.212 27.409 137.469 27.1948C137.727 26.9806 137.901 26.6628 137.992 26.2412Z" fill="white"/>
<path d="M140.903 27.998V23.5786H139.252V22.9873H143.224V23.5786H141.566V27.998H140.903Z" fill="white"/>
<path d="M144.265 27.998V22.9873H146.145C146.528 22.9873 146.834 23.0386 147.065 23.1411C147.297 23.2414 147.478 23.3975 147.608 23.6094C147.74 23.819 147.806 24.0389 147.806 24.269C147.806 24.4832 147.748 24.6849 147.632 24.874C147.516 25.0632 147.34 25.2158 147.106 25.332C147.409 25.4209 147.641 25.5724 147.803 25.7866C147.967 26.0008 148.049 26.2537 148.049 26.5454C148.049 26.7801 147.999 26.9989 147.899 27.2017C147.801 27.4022 147.679 27.5571 147.533 27.6665C147.387 27.7759 147.204 27.859 146.982 27.916C146.764 27.9707 146.495 27.998 146.176 27.998H144.265ZM144.928 25.0928H146.012C146.306 25.0928 146.517 25.0734 146.644 25.0347C146.813 24.9845 146.939 24.9014 147.024 24.7852C147.11 24.6689 147.153 24.5231 147.153 24.3477C147.153 24.1813 147.114 24.0355 147.034 23.9102C146.954 23.7826 146.84 23.696 146.692 23.6504C146.544 23.6025 146.29 23.5786 145.93 23.5786H144.928V25.0928ZM144.928 27.4067H146.176C146.39 27.4067 146.54 27.3988 146.627 27.3828C146.78 27.3555 146.907 27.3099 147.01 27.2461C147.112 27.1823 147.197 27.09 147.263 26.9692C147.329 26.8462 147.362 26.7049 147.362 26.5454C147.362 26.3586 147.314 26.1968 147.218 26.0601C147.123 25.9211 146.989 25.8242 146.818 25.7695C146.65 25.7126 146.406 25.6841 146.087 25.6841H144.928V27.4067Z" fill="white"/>
<path d="M149.36 27.998V22.9873H152.983V23.5786H150.023V25.1133H152.795V25.7012H150.023V27.4067H153.099V27.998H149.36Z" fill="white"/>
<path d="M154.421 27.998V22.9873H155.084V25.0449H157.689V22.9873H158.352V27.998H157.689V25.6362H155.084V27.998H154.421Z" fill="white"/>
<path d="M159.865 27.998V22.9873H160.528V25.0449H163.132V22.9873H163.795V27.998H163.132V25.6362H160.528V27.998H159.865Z" fill="white"/>
<path d="M165.086 25.5576C165.086 24.7259 165.309 24.0754 165.756 23.606C166.203 23.1343 166.779 22.8984 167.485 22.8984C167.948 22.8984 168.365 23.009 168.736 23.23C169.108 23.451 169.39 23.7598 169.584 24.1562C169.78 24.5505 169.878 24.9982 169.878 25.4995C169.878 26.0076 169.775 26.4622 169.57 26.8633C169.365 27.2643 169.075 27.5685 168.699 27.7759C168.323 27.981 167.917 28.0835 167.482 28.0835C167.01 28.0835 166.589 27.9696 166.217 27.7417C165.846 27.5138 165.564 27.2028 165.373 26.8086C165.182 26.4144 165.086 25.9974 165.086 25.5576ZM165.77 25.5679C165.77 26.1717 165.931 26.6479 166.255 26.9966C166.581 27.3429 166.989 27.5161 167.479 27.5161C167.978 27.5161 168.388 27.3407 168.709 26.9897C169.033 26.6388 169.194 26.141 169.194 25.4961C169.194 25.0882 169.125 24.7327 168.986 24.4297C168.849 24.1243 168.647 23.8885 168.381 23.7222C168.117 23.5535 167.819 23.4692 167.489 23.4692C167.019 23.4692 166.615 23.631 166.275 23.9546C165.938 24.2759 165.77 24.8136 165.77 25.5679Z" fill="white"/>
<path d="M171.135 27.998V22.9873H174.758V23.5786H171.798V25.1133H174.57V25.7012H171.798V27.4067H174.874V27.998H171.135Z" fill="white"/>
<path d="M58.3379 35.5576C58.3379 34.7259 58.5612 34.0754 59.0078 33.606C59.4544 33.1343 60.0309 32.8984 60.7373 32.8984C61.1999 32.8984 61.6169 33.009 61.9883 33.23C62.3597 33.451 62.6423 33.7598 62.8359 34.1562C63.0319 34.5505 63.1299 34.9982 63.1299 35.4995C63.1299 36.0076 63.0273 36.4622 62.8223 36.8633C62.6172 37.2643 62.3267 37.5685 61.9507 37.7759C61.5747 37.981 61.1691 38.0835 60.7339 38.0835C60.2622 38.0835 59.8407 37.9696 59.4692 37.7417C59.0978 37.5138 58.8164 37.2028 58.625 36.8086C58.4336 36.4144 58.3379 35.9974 58.3379 35.5576ZM59.0215 35.5679C59.0215 36.1717 59.1833 36.6479 59.5068 36.9966C59.8327 37.3429 60.2406 37.5161 60.7305 37.5161C61.2295 37.5161 61.6396 37.3407 61.9609 36.9897C62.2845 36.6388 62.4463 36.141 62.4463 35.4961C62.4463 35.0882 62.3768 34.7327 62.2378 34.4297C62.1011 34.1243 61.8994 33.8885 61.6328 33.7222C61.3685 33.5535 61.0711 33.4692 60.7407 33.4692C60.2713 33.4692 59.8669 33.631 59.5273 33.9546C59.1901 34.2759 59.0215 34.8136 59.0215 35.5679Z" fill="white"/>
<path d="M64.4036 32.9873H67.654V33.5786H65.0666V35.1235H66.2629C66.705 35.1235 67.0559 35.1657 67.3157 35.25C67.5777 35.3343 67.7873 35.4938 67.9446 35.7285C68.1018 35.9609 68.1804 36.2321 68.1804 36.542C68.1804 36.7949 68.1234 37.0319 68.0095 37.2529C67.8979 37.4717 67.7304 37.6506 67.5071 37.7896C67.2838 37.9285 66.9032 37.998 66.3655 37.998H64.4036V32.9873ZM65.0666 37.4341H66.3928C66.7506 37.4341 67.0183 37.3612 67.196 37.2153C67.376 37.0695 67.4661 36.8507 67.4661 36.5591C67.4661 36.3517 67.4148 36.1785 67.3122 36.0396C67.2097 35.9006 67.0673 35.8083 66.885 35.7627C66.7027 35.7171 66.3917 35.6943 65.9519 35.6943H65.0666V37.4341Z" fill="white"/>
<path d="M68.5791 32.9873H70.7666V35.127H71.9663C72.7524 35.127 73.2674 35.2728 73.5112 35.5645C73.7573 35.8561 73.8804 36.1842 73.8804 36.5488C73.8804 36.9681 73.7379 37.3145 73.4531 37.5879C73.1706 37.8613 72.6886 37.998 72.0073 37.998H70.1035V33.5786H68.5791V32.9873ZM70.7666 37.4341H71.98C72.397 37.4341 72.6989 37.3646 72.8857 37.2256C73.0726 37.0843 73.166 36.861 73.166 36.5557C73.166 36.3483 73.1102 36.174 72.9985 36.0327C72.8891 35.8892 72.7433 35.798 72.561 35.7593C72.3787 35.7183 72.0757 35.6978 71.6518 35.6978H70.7666V37.4341Z" fill="white"/>
<path d="M75.0617 37.998V32.9873H78.6848V33.5786H75.7248V35.1133H78.4968V35.7012H75.7248V37.4067H78.801V37.998H75.0617Z" fill="white"/>
<path d="M80.5566 32.9873H83.6054V37.4067H84.0566V39.167H83.4653V37.998H80.1533V39.167H79.562V37.4067H79.9516C80.3549 36.7983 80.5566 35.569 80.5566 33.7188V32.9873ZM82.9423 33.5786H81.1958V33.835C81.1958 34.2611 81.157 34.8444 81.0796 35.585C81.0044 36.3232 80.8551 36.9305 80.6318 37.4067H82.9423V33.5786Z" fill="white"/>
<path d="M85.2414 32.9873H85.843V36.9556L88.509 32.9873H89.1755V37.998H88.5739V34.04L85.9045 37.998H85.2414V32.9873Z" fill="white"/>
<path d="M90.6679 37.998V32.9873H91.331V35.0449H93.9355V32.9873H94.5986V37.998H93.9355V35.6362H91.331V37.998H90.6679Z" fill="white"/>
<path d="M96.1047 37.998V32.9873H99.7277V33.5786H96.7678V35.1133H99.5397V35.7012H96.7678V37.4067H99.8439V37.998H96.1047Z" fill="white"/>
<path d="M101.165 37.998V32.9873H101.829V35.0449H104.433V32.9873H105.096V37.998H104.433V35.6362H101.829V37.998H101.165Z" fill="white"/>
<path d="M106.599 32.9873H107.2V36.9556L109.866 32.9873H110.533V37.998H109.931V34.04L107.262 37.998H106.599V32.9873Z" fill="white"/>
<path d="M112.018 37.998V32.9873H115.642V33.5786H112.682V35.1133H115.454V35.7012H112.682V37.4067H115.758V37.998H112.018Z" fill="white"/>
<path d="M64.4644 16.9976H63.0493L62.4868 15.5342H59.9116L59.3799 16.9976H58L60.5093 10.5552H61.8848L64.4644 16.9976ZM62.0693 14.4487L61.1816 12.0581L60.3115 14.4487H62.0693Z" fill="white"/>
<path d="M65.6131 16.9976V10.5552H66.9139V13.0908H69.4627V10.5552H70.7635V16.9976H69.4627V14.1807H66.9139V16.9976H65.6131Z" fill="white"/>
<path d="M73.0812 10.5552H77.5328V15.9165H78.0997V18.4038H77.0187V16.9976H72.9625V18.4038H71.8814V15.9165H72.4264C72.693 15.3657 72.8687 14.7271 72.9537 14.0005C73.0387 13.271 73.0812 12.3496 73.0812 11.2363V10.5552ZM74.3204 11.6362C74.3204 13.5933 74.1432 15.02 73.7887 15.9165H76.2364V11.6362H74.3204Z" fill="white"/>
<path d="M79.4286 16.9976V10.5552H81.516C82.307 10.5552 82.8227 10.5874 83.0629 10.6519C83.432 10.7485 83.7411 10.9595 83.9901 11.2847C84.2392 11.6069 84.3637 12.0244 84.3637 12.5371C84.3637 12.9326 84.2919 13.2651 84.1483 13.5347C84.0048 13.8042 83.8217 14.0166 83.599 14.1719C83.3793 14.3242 83.1552 14.4253 82.9267 14.4751C82.6161 14.5366 82.1664 14.5674 81.5775 14.5674H80.7294V16.9976H79.4286ZM80.7294 11.645V13.4731H81.4413C81.954 13.4731 82.2968 13.4395 82.4696 13.3721C82.6425 13.3047 82.7772 13.1992 82.8739 13.0557C82.9735 12.9121 83.0233 12.7451 83.0233 12.5547C83.0233 12.3203 82.9545 12.127 82.8168 11.9746C82.6791 11.8223 82.5048 11.7271 82.2938 11.689C82.1386 11.6597 81.8266 11.645 81.3578 11.645H80.7294Z" fill="white"/>
<path d="M85.4948 13.8159C85.4948 13.1597 85.593 12.6089 85.7893 12.1636C85.9357 11.8354 86.135 11.541 86.3869 11.2803C86.6418 11.0195 86.9201 10.8262 87.2219 10.7002C87.6232 10.5303 88.0861 10.4453 88.6105 10.4453C89.5598 10.4453 90.3186 10.7397 90.8869 11.3286C91.4582 11.9175 91.7438 12.7363 91.7438 13.7852C91.7438 14.8252 91.4611 15.6396 90.8957 16.2285C90.3303 16.8145 89.5744 17.1074 88.6281 17.1074C87.6701 17.1074 86.9084 16.8159 86.343 16.2329C85.7775 15.647 85.4948 14.8413 85.4948 13.8159ZM86.8352 13.772C86.8352 14.5015 87.0036 15.0552 87.3405 15.4331C87.6774 15.8081 88.1052 15.9956 88.6237 15.9956C89.1423 15.9956 89.5671 15.8096 89.8981 15.4375C90.2321 15.0625 90.3991 14.5015 90.3991 13.7544C90.3991 13.0161 90.2365 12.4653 89.9113 12.1021C89.5891 11.7388 89.1599 11.5571 88.6237 11.5571C88.0876 11.5571 87.6555 11.7417 87.3273 12.1108C86.9992 12.4771 86.8352 13.0308 86.8352 13.772Z" fill="white"/>
<path d="M93.231 10.5552H94.4482V14.8442L97.0586 10.5552H98.355V16.9976H97.1377V12.792L94.5317 16.9976H93.231V10.5552Z" fill="white"/>
<path d="M100.651 10.5552H105.102V15.9165H105.669V18.4038H104.588V16.9976H100.532V18.4038H99.451V15.9165H99.9959C100.263 15.3657 100.438 14.7271 100.523 14.0005C100.608 13.271 100.651 12.3496 100.651 11.2363V10.5552ZM101.89 11.6362C101.89 13.5933 101.713 15.02 101.358 15.9165H103.806V11.6362H101.89Z" fill="white"/>
<path d="M107.003 16.9976V10.5552H108.303V13.0908H110.852V10.5552H112.153V16.9976H110.852V14.1807H108.303V16.9976H107.003Z" fill="white"/>
<path d="M119.762 16.9976H118.347L117.784 15.5342H115.209L114.677 16.9976H113.297L115.807 10.5552H117.182L119.762 16.9976ZM117.367 14.4487L116.479 12.0581L115.609 14.4487H117.367Z" fill="white"/>
<path d="M124.76 16.9976V14.3081H124.496C124.086 14.3081 123.796 14.3696 123.626 14.4927C123.459 14.6157 123.172 14.9834 122.765 15.5957L121.824 16.9976H120.269L121.055 15.7407C121.366 15.2427 121.613 14.894 121.798 14.6948C121.983 14.4927 122.214 14.3125 122.492 14.1543C121.892 14.0605 121.458 13.8525 121.192 13.5303C120.925 13.2051 120.792 12.8169 120.792 12.3657C120.792 11.9731 120.89 11.626 121.086 11.3242C121.285 11.0195 121.546 10.8159 121.868 10.7134C122.194 10.6079 122.678 10.5552 123.323 10.5552H126.061V16.9976H124.76ZM124.76 11.645H123.745C123.229 11.645 122.889 11.6567 122.725 11.6802C122.564 11.7036 122.425 11.7827 122.308 11.9175C122.191 12.0522 122.132 12.228 122.132 12.4448C122.132 12.6704 122.188 12.8506 122.299 12.9854C122.413 13.1172 122.557 13.1992 122.73 13.2314C122.905 13.2637 123.261 13.2798 123.798 13.2798H124.76V11.645Z" fill="white"/>
<path d="M132.23 16.9976V11.645H130.318V10.5552H135.438V11.645H133.531V16.9976H132.23Z" fill="white"/>
<path d="M136.732 16.9976V10.5552H141.508V11.645H138.032V13.0732H141.267V14.1587H138.032V15.9121H141.631V16.9976H136.732Z" fill="white"/>
<path d="M142.53 16.9976L144.731 13.6357L142.736 10.5552H144.257L145.549 12.625L146.814 10.5552H148.322L146.318 13.6841L148.519 16.9976H146.951L145.522 14.7695L144.09 16.9976H142.53Z" fill="white"/>
<path d="M149.642 16.9976V10.5552H150.943V13.0908H153.491V10.5552H154.792V16.9976H153.491V14.1807H150.943V16.9976H149.642Z" fill="white"/>
<path d="M156.609 10.5552H157.826V14.8442L160.437 10.5552H161.733V16.9976H160.516V12.792L157.91 16.9976H156.609V10.5552Z" fill="white"/>
<path d="M163.532 10.5552H164.833V13.2974C165.123 13.2681 165.319 13.1934 165.422 13.0732C165.524 12.9531 165.682 12.6191 165.896 12.0713C166.166 11.374 166.437 10.9404 166.709 10.7705C166.979 10.6006 167.414 10.5156 168.014 10.5156C168.044 10.5156 168.107 10.5142 168.203 10.5112V11.4736L168.019 11.4692C167.752 11.4692 167.557 11.5029 167.434 11.5703C167.311 11.6348 167.212 11.7344 167.136 11.8691C167.059 12.0039 166.947 12.2808 166.797 12.6997C166.718 12.9224 166.632 13.1084 166.538 13.2578C166.447 13.4072 166.284 13.5479 166.05 13.6797C166.34 13.7617 166.579 13.9272 166.766 14.1763C166.957 14.4253 167.165 14.7769 167.39 15.231L168.269 16.9976H166.74L165.971 15.332C165.959 15.3086 165.934 15.2632 165.896 15.1958C165.882 15.1724 165.827 15.0713 165.734 14.8926C165.567 14.5762 165.429 14.3784 165.321 14.2993C165.215 14.2202 165.053 14.1792 164.833 14.1763V16.9976H163.532V10.5552Z" fill="white"/>
<path d="M175.263 16.9976H173.848L173.285 15.5342H170.71L170.178 16.9976H168.798L171.308 10.5552H172.683L175.263 16.9976ZM172.868 14.4487L171.98 12.0581L171.11 14.4487H172.868Z" fill="white"/>
</svg>
